<?xml version="1.0" encoding="utf-8"?>
<!-- Generator: Adobe Illustrator 19.2.0, SVG Export Plug-In . SVG Version: 6.00 Build 0)  -->
<svg version="1.1" id="Layer_1" xmlns="http://www.w3.org/2000/svg" xmlns:xlink="http://www.w3.org/1999/xlink" x="0px" y="0px"
	 viewBox="0 0 1231.4 793.4" style="enable-background:new 0 0 1231.4 793.4;" xml:space="preserve">
<style type="text/css">
	.st0{fill:#A1A6AA;}
	.st1{fill:#BDC3C7;}
	.st2{fill:#DCDDDE;}
	.st3{fill:#3E4A53;}
	.st4{fill:#010202;}
	.st5{fill:#FFFFFF;}
	.st6{fill:#4BAAE0;}
	.st7{fill:#ADC4D1;}
	.st8{fill:#9CB9C9;}
	.st9{fill:#389BC6;}
	.st10{fill:#343434;}
	.st11{fill:#A7A9AC;}
	.st12{fill:#E6E7E9;}
	.st13{fill:#414142;}
	.st14{fill:#EB5754;}
	.st15{fill:#F9B257;}
	.st16{fill:#38B398;}
	.st17{fill:#4E8EA7;}
	.st18{fill:#F4983D;}
	.st19{fill:#585555;}
	.st20{fill:#727577;}
	.st21{fill:#F08173;}
	.st22{fill:#74C3AE;}
	.st23{fill:#F8B06C;}
	.st24{fill:#FBC47E;}
	.st25{fill:#7BA3B9;}
	.st26{fill:#F8AB11;}
	.st27{fill:#005A78;}
	.st28{opacity:0.1;}
	.st29{fill:#CAE2F7;}
	.st30{fill:#29849D;}
	.st31{fill:url(#SVGID_1_);}
	.st32{fill:url(#SVGID_2_);}
	.st33{fill:#CAE2F7;stroke:#CAE2F7;stroke-width:2;stroke-miterlimit:10;}
</style>
<g>
	<g>
		<g id="Shape_1_copy">
			<g>
				<path class="st0" d="M613.7,786.5l-18.5-8c-7.2-4.8-7.3-11.8-7.3-11.8c-105.2-9.9-149.8-4.8-149.8-4.8c-0.8,11.2-2.7,10-2.7,10
					C429.6,782.1,412,786,412,786c-6.5,6.3,0.9,7.3,0.9,7.3h199.7C619.4,792.7,613.7,786.5,613.7,786.5z"/>
			</g>
		</g>
		<g id="Shape_1">
			<g>
				<path class="st1" d="M613.1,786l-17.9-10.2c-7.2-4.8-7.3-11.8-7.3-11.8c-2.4-8.8-6.6-67.2-6.6-67.2h-138l-5.2,57.1
					c-0.8,11.2-2.7,15.3-2.7,15.3c-5.8,10.2-22.9,16.4-22.9,16.4c-6.4,3.4,0.4,5,0.4,5h199.7C618.3,789.2,613.1,786,613.1,786z"/>
			</g>
		</g>
		<g id="Shape_2">
			<g>
				<path class="st2" d="M844.9,222H179.6c-7.7,0-14,6.3-14,14v447.4c0,7.7,6.3,14,14,14H845c7.7,0,14-6.3,14-14V236
					C858.9,228.3,852.7,222,844.9,222z"/>
			</g>
		</g>
		<g id="Shape_3">
			<g>
				<circle class="st3" cx="513.1" cy="665.8" r="13.7"/>
			</g>
		</g>
		<g id="Shape_2_copy">
			<g>
				<path class="st4" d="M858.9,634.9V236c0-7.7-6.3-14-14-14H179.6c-7.7,0-14,6.3-14,14v398.9H858.9z"/>
			</g>
		</g>
		<g id="Shape_4">
			<g>
				<rect x="192.2" y="248.6" class="st5" width="640.1" height="359"/>
			</g>
		</g>
		<g>
			<g>
				<path class="st6" d="M547.7,282.7c-4.9-8.2-14.1-13.3-24.1-13.3c-4.9,0-9.7,1.2-13.9,3.6c-4.1-1.8-8.5-2.7-13-2.7
					c-12.8,0-24.6,7.8-29.7,19.5c-9.1,5.3-14.6,14.9-14.6,25.5c0,16.3,13.3,29.6,29.6,29.6c1.2,0,2.3-0.1,3.5-0.2
					c4.5,2.6,9.6,4,14.9,4c4.6,0,9.2-1.1,13.3-3.2c4,2.1,8.4,3.2,12.9,3.2c0.3,0,0.5,0,0.8,0c7.3-0.2,14.2-3.3,19.2-8.5
					c14.5-1.7,25.6-14,25.6-28.8C572.1,297,561.5,284.9,547.7,282.7z M544.5,336.1c-4.3,5.1-10.6,8.1-17.4,8.3c-0.2,0-0.5,0-0.7,0
					c-4.6,0-9-1.3-12.8-3.8c-4,2.5-8.6,3.8-13.4,3.8c-5,0-9.8-1.4-14-4.2c-1.4,0.2-2.9,0.4-4.4,0.4c-14,0-25.4-11.4-25.4-25.4
					c0-9.6,5.3-18.2,13.8-22.6c4.1-10.9,14.7-18.3,26.4-18.3c4.7,0,9.2,1.1,13.2,3.3c4-2.7,8.7-4.2,13.7-4.2c9.4,0,17.6,5.1,21.5,13
					c12.8,1,22.9,11.7,22.9,24.8C567.9,324.5,557.6,335.4,544.5,336.1z"/>
				<path class="st6" d="M543.1,290.6c-0.3,0-0.6,0-0.8,0c-2.4-7.5-9.9-13-18.7-13c-5.2,0-9.9,1.9-13.4,5c-3.9-2.7-8.6-4.1-13.5-4.1
					c-10.7,0-20.1,7.2-23.1,17.2c-7.6,3.2-13,10.8-13,19.6c0,11.8,9.5,21.3,21.3,21.3c1.8,0,3.6-0.2,5.3-0.7c3.6,2.8,8.1,4.5,13,4.5
					c5.1,0,9.8-1.8,13.4-4.8c3.6,3.1,8,4.8,12.8,4.8c0.2,0,0.4,0,0.6,0c6.1-0.2,11.6-3.1,15.2-8l0.2-0.3h0.6
					c11.4,0,20.7-9.3,20.7-20.7C563.8,299.9,554.5,290.6,543.1,290.6z M525.8,322.8c0,1.8-5.4,3.5-13,3.5c-7.6,0-13-1.6-13-3.5v-6.9
					c0,1.9,5.4,3.5,13,3.5c7.6,0,13-1.6,13-3.5V322.8z M525.8,313.6c0,1.8-5.4,3.5-13,3.5c-7.6,0-13-1.6-13-3.5v-6.9
					c0,1.9,5.4,3.5,13,3.5c7.6,0,13-1.6,13-3.5V313.6z M525.8,304.3c0,1.9-5.4,3.5-13,3.5c-7.6,0-13-1.6-13-3.5v-6.9
					c0,1.9,5.4,3.5,13,3.5c7.6,0,13-1.6,13-3.5V304.3z M512.2,298.6c-7.7,0-13.9-1.5-13.9-3.5c0-1.9,6.2-3.5,13.9-3.5
					c7.7,0,13.9,1.6,13.9,3.5C526.1,297,519.9,298.6,512.2,298.6z"/>
			</g>
		</g>
	</g>
	<g>
		<g>
			<path class="st7" d="M778.3,459.2c4.1-5,6.6-11.3,6.6-18.3c0-15.8-12.8-28.7-28.7-28.7c-3.6,0-7,0.7-10.1,1.9
				c-5.2-29.4-32.2-51.8-64.6-51.8c-31.7,0-58.2,21.4-64.2,49.8c-10.3-17.5-29.3-29.4-51.1-29.4c-22.4,0-41.8,12.4-51.9,30.7
				c-12.4-22.8-36.5-38.3-64.3-38.3c-40.4,0-73.1,32.7-73.1,73.1c0,0.6,0,1.2,0,1.8c-9.9-5.2-21.3-8.2-33.3-8.2
				c-39.6,0-71.7,32.1-71.7,71.7c0,1.8,0.1,3.7,0.2,5.5c-7.8-3.5-16.5-5.5-25.6-5.5c-34.5,0-62.5,28-62.5,62.5
				c0,12.2,3.5,23.6,9.6,33.2h641.5v-68.5C835.1,540.9,846.5,477.9,778.3,459.2z"/>
			<path class="st5" d="M807,549.2c-8.8-52.8-36.5-52.2-62.4-50.6c7.8-5.3,11-11.2,11.6-17.1c2.1-20.1-14-33.1-26.4-31.8
				c-6.5,0.7-11.5,3.5-11.5,3.5c-0.8-6.8-3.5-13.2-8.4-18.3c-6.3-6.6-14.9-10.6-23.8-12.3c-16.5-3.2-36.7,0.1-48.4,13.1l-3.8,8.5
				c-8-15.2-23.2-25.4-40.6-25.4c-21.6,0-39.7,15.6-45,36.8c-4.4-2.5-9.4-3.9-14.7-3.9c-16,0-29.2,12.9-31,29.5
				c-3.3,0.5-6.6,1.1-10,1.8c-9.8-9-22.6-14.4-36.6-14.4c-31.2,0-56.4,27-56.4,60.3c0,1.6,0.1,3.1,0.2,4.6c-6.1-2.9-13-4.6-20.1-4.6
				c-27.2,0-49.2,23.5-49.2,52.6c0,10.3,2.8,19.9,7.5,28l451.3-1.1C789.3,608.3,814.4,593.9,807,549.2z"/>
			<path class="st7" d="M845.9,362.6c4.1-5.2,6.5-11.6,6.5-18.7c0-16.7-13.6-30.3-30.3-30.3c-16.8,0-30.3,13.6-30.3,30.3
				c0,9.7,4.6,18.3,11.7,23.9c-1.7,2.3-2.8,5.2-2.8,8.3c0,7.7,6.2,13.9,13.9,13.9c5,0,9.4-2.7,11.8-6.7c2,6.9,8.3,12,15.9,12
				c9.1,0,16.5-7.4,16.5-16.5C858.8,370.9,853.3,364.3,845.9,362.6z"/>
			<path class="st7" d="M681.9,311.5c-0.2-10.2-8.5-18.5-18.8-18.5c-10.4,0-18.8,8.4-18.8,18.8c0,0.9,0.1,1.8,0.2,2.7
				c-5.8,2.1-10,7.7-10,14.2c0,8.4,6.8,15.2,15.2,15.2c1.6,0,3.1-0.3,4.6-0.7c2.8,10.9,12.8,19,24.6,19c14,0,25.4-11.4,25.4-25.4
				C704.3,323.8,694.5,313,681.9,311.5z"/>
			<circle class="st7" cx="669.5" cy="259.6" r="12.9"/>
			<circle class="st7" cx="642.5" cy="275.6" r="7.6"/>
			<path class="st8" d="M776.3,558.6c-1.3,0-2.7,0.1-4,0.3c-1.4-11.4-7.8-28.2-32.3-35c2.3-2.8,3.8-6.4,3.8-10.4
				c0-9-7.3-16.3-16.3-16.3c-2,0-4,0.4-5.8,1.1c-3-16.7-18.3-29.4-36.7-29.4c-18,0-33.1,12.2-36.5,28.3c-5.8-10-16.6-16.7-29-16.7
				c-12.7,0-23.8,7.1-29.5,17.5c-7-13-20.8-21.8-36.6-21.8c-23,0-41.6,18.6-41.6,41.6c0,0.4,0,0.7,0,1c-5.7-3-12.1-4.7-18.9-4.7
				c-22.5,0-40.7,18.2-40.7,40.7c0,1,0.1,2.1,0.1,3.1c-4.4-2-9.4-3.1-14.5-3.1c-19.6,0-35.5,15.9-35.5,35.5c0,6.9,2,13.4,5.4,18.9
				h364.5c1.3,0.2,2.7,0.4,4.1,0.4c14.1,0,25.5-11.4,25.5-25.5C801.9,570.1,790.4,558.6,776.3,558.6z"/>
			<path class="st9" d="M636.2,494.9c-2.9,0-5.7,0.5-8.3,1.5c-2.9-22-21.8-39-44.6-39c-24.9,0-45.1,20.2-45.1,45.1
				c0,6.9,1.5,13.4,4.3,19.2c-12,4.2-20.6,15.5-20.6,28.9c0,16.9,13.7,30.7,30.7,30.7c16.9,0,30.7-13.7,30.7-30.7
				c0-1-0.1-2.1-0.2-3.1c0.1,0,0.1,0,0.2,0c12.7,0,24.1-5.2,32.3-13.7c4.5,6.6,12.1,11,20.7,11c13.8,0,24.9-11.2,24.9-24.9
				C661.1,506.1,650,494.9,636.2,494.9z"/>
		</g>
	</g>
</g>
<g>
	<path class="st10" d="M1168.5,765.6c0,9.9-8,18-17.9,18h-401c-9.9,0-17.9-8.1-17.9-18V494.8c0-9.9,8-18,17.9-18h401
		c9.9,0,17.9,8.1,17.9,18V765.6"/>
	<path class="st11" d="M668.8,775.9v4.7v0.7v0.2h0.2c11.1,13.9,19,11.9,21.3,11.9h259.9H1173h41.3c3.9-0.5,9.8-2.7,17.1-11.9h0.1
		v-0.1v-0.8v-4.7L668.8,775.9L668.8,775.9z"/>
	<path class="st12" d="M668.8,765.3v16.2c2.1,0.3,4.3,0.4,6.6,0.4h549.4c2.3,0,4.5-0.2,6.6-0.4v-16.2H668.8"/>
	<polyline class="st5" points="1149.1,748.7 751.6,748.7 751.6,497.7 1149.1,497.7 1149.1,748.7 	"/>
	<path class="st11" d="M912.5,769.7c-0.1,0.4-0.1,0.8-0.1,1.2c0,3.1,2.5,5.6,5.7,5.6h64.2c3.1,0,5.7-2.5,5.7-5.6
		c0-0.4-0.1-0.8-0.1-1.2H912.5z"/>
	<path class="st5" d="M902.9,765.3c-0.1,0.5-0.2,1-0.2,1.5c0,3.9,3.2,7.1,7.1,7.1h80.6c3.9,0,7.1-3.2,7.1-7.1c0-0.5-0.1-1-0.2-1.5
		H902.9z"/>
	<polyline class="st13" points="1053.1,528.7 847.1,528.7 847.1,514.4 1053.1,514.4 1053.1,528.7 	"/>
	<polyline class="st14" points="884.8,680.1 875.3,680.1 875.3,670.7 884.8,670.7 884.8,680.1 	"/>
	<rect x="875.3" y="684.4" class="st15" width="9.5" height="9.5"/>
	<rect x="875.3" y="698.2" class="st16" width="9.5" height="9.5"/>
	<rect x="888.2" y="670.7" class="st17" width="53" height="9.5"/>
	<rect x="888.2" y="684.4" class="st17" width="53" height="9.5"/>
	<rect x="888.2" y="698.2" class="st17" width="53" height="9.5"/>
	<path class="st14" d="M855.2,670.1H853h-42.6h-5.9h-17v5.9h17v25.1v5.2v0.2l-5.9,4.2v0.1c-4.2,1-7.3,4.8-7.3,9.2
		c0,5.2,4.3,9.5,9.5,9.5c4.4,0,8.2-3.1,9.2-7.2h21.7c1,4.1,4.8,7.2,9.2,7.2c5.2,0,9.5-4.3,9.5-9.5s-4.3-9.5-9.5-9.5
		c-3.6,0-6.7,2-8.3,4.9h-23.5c-0.5-0.9-1.2-1.7-1.9-2.4l8.3-5.9V707h43.4v-0.7v-5.2V676v-2.2L855.2,670.1 M800.8,723.2
		c-1.8,0-3.2-1.4-3.2-3.2s1.4-3.2,3.2-3.2s3.2,1.4,3.2,3.2S802.6,723.2,800.8,723.2 M841,716.8c1.8,0,3.2,1.4,3.2,3.2
		s-1.4,3.2-3.2,3.2s-3.2-1.4-3.2-3.2C837.8,718.3,839.2,716.8,841,716.8 M817,701.1h-6.7V693h6.7V701.1 M817,690.9h-6.7v-6.5h6.7
		V690.9 M817,682.3h-6.7V676h6.7V682.3 M825.9,701.1h-6.2V693h6.2V701.1 M825.9,690.9h-6.2v-6.5h6.2V690.9 M825.9,682.3h-6.2V676
		h6.2V682.3 M834.7,701.1h-6.2V693h6.2V701.1 M834.7,690.9h-6.2v-6.5h6.2V690.9 M834.7,682.3h-6.2V676h6.2V682.3 M843.6,701.1h-6.2
		V693h6.2V701.1 M843.6,690.9h-6.2v-6.5h6.2V690.9 M843.6,682.3h-6.2V676h6.2V682.3 M853,701.1h-6.7V693h6.7V701.1 M853,690.9h-6.7
		v-6.5h6.7V690.9 M853,682.3h-6.7V676h6.7V682.3"/>
	<polyline class="st16" points="828.8,665.4 806.4,665.4 806.4,651.6 828.8,651.6 828.8,665.4 	"/>
	<polyline class="st18" points="852.7,665.2 833,665.2 833,656 852.7,656 852.7,665.2 	"/>
	<path class="st5" d="M804,720c0,1.8-1.5,3.3-3.3,3.3s-3.3-1.5-3.3-3.3s1.5-3.3,3.3-3.3C802.5,716.8,804,718.2,804,720"/>
	<circle class="st5" cx="841" cy="720" r="3.3"/>
	<polyline class="st17" points="1112.2,551.6 1020.9,551.6 1020.9,545.5 1112.2,545.5 1112.2,551.6 	"/>
	<polyline class="st17" points="1112.2,578.6 1020.9,578.6 1020.9,572.5 1112.2,572.5 1112.2,578.6 	"/>
	<rect x="993.2" y="681.2" class="st17" width="120.7" height="6.1"/>
	<rect x="993.2" y="694" class="st17" width="120.7" height="6.1"/>
	<rect x="993.2" y="706.9" class="st17" width="120.7" height="6.1"/>
	<rect x="993.2" y="719.7" class="st17" width="120.7" height="6.1"/>
	<polyline class="st17" points="1063.1,563.8 1020.4,563.8 1020.4,557.7 1063.1,557.7 1063.1,563.8 	"/>
	<rect x="1020.4" y="583.8" class="st17" width="42.7" height="6.1"/>
	
		<rect x="997.8" y="626.9" transform="matrix(0.7072 -0.707 0.707 0.7072 -148.7589 898.3144)" class="st17" width="24.8" height="3.8"/>
	
		<rect x="1047.3" y="626.8" transform="matrix(0.7071 -0.7071 0.7071 0.7071 -134.1781 933.4485)" class="st17" width="24.8" height="3.8"/>
	
		<rect x="1034.4" y="616.3" transform="matrix(0.7071 -0.7071 0.7071 0.7071 -141.0202 916.8965)" class="st17" width="3.8" height="24.8"/>
	<polyline class="st14" points="1014.1,591.7 992.8,591.7 992.8,570.3 1014.1,570.3 1014.1,591.7 	"/>
	<rect x="992.8" y="654.3" class="st14" width="91.6" height="21.3"/>
	<rect x="1092.8" y="654.3" class="st18" width="21.3" height="21.3"/>
	<circle class="st18" cx="997.8" cy="636.1" r="9.6"/>
	<circle class="st18" cx="1023" cy="619.6" r="9.6"/>
	<circle class="st18" cx="1048.1" cy="636.1" r="9.6"/>
	<path class="st14" d="M1083.7,590.8c-10.8,0-19.6,8.8-19.6,19.6s8.8,19.6,19.6,19.6c5.4,0,10.3-2.2,13.9-5.7l-13.9-13.9V590.8z"/>
	<path class="st16" d="M1087.1,589.1v19.6l13.9,13.9c3.5-3.5,5.7-8.4,5.7-13.9C1106.7,597.8,1098,589.1,1087.1,589.1z"/>
	<polyline class="st15" points="963.1,557.7 962.8,557.5 940.2,566.9 943.7,570.2 888.6,625.8 856.6,606.1 856.6,606.1 856.4,606 
		838.5,626.1 816.7,611.1 816.3,611.4 837.7,641.3 838.3,640.7 858,622.5 888.7,641.4 888.9,641 889.2,641.4 952.3,578.2 
		956.9,582.5 963.1,557.7 	"/>
	<polyline class="st17" points="914,548.8 822,548.8 822,541.7 914,541.7 914,548.8 	"/>
	<polyline class="st17" points="914,560.2 822,560.2 822,553.1 914,553.1 914,560.2 	"/>
	<polyline class="st17" points="914,571.5 822,571.5 822,564.4 914,564.4 914,571.5 	"/>
	<polyline class="st15" points="816.4,571.5 786.1,571.5 786.1,541.3 816.4,541.3 816.4,571.5 	"/>
	<path class="st19" d="M950.1,491.6c-1.5,0-2.6-1.2-2.6-2.6c0-1.5,1.1-2.7,2.6-2.7c1.4,0,2.6,1.2,2.6,2.7
		C952.8,490.4,951.6,491.6,950.1,491.6 M1150.6,476.8h-71.9h-32.6H749.6c-9.9,0-17.9,8.1-17.9,18v270.5h0.4l25.4-16.6h-5.9v-251
		h389.7l22.7-14.8c-3.2-3.6-7.8-6-13-6.1l0,0c0,0,0,0-0.1,0l0,0c0,0,0,0-0.1,0l0,0l0,0l0,0l0,0l0,0
		C1150.7,476.8,1150.7,476.8,1150.6,476.8C1150.7,476.8,1150.7,476.8,1150.6,476.8L1150.6,476.8L1150.6,476.8"/>
	<path class="st5" d="M802.4,717.2c0.5,0.3,0.9,0.8,1.2,1.3l0,0C803.4,718,802.9,717.5,802.4,717.2 M821.2,707.1h-5.7v0.1l-8.3,5.9
		c0.7,0.6,1.2,1.3,1.7,2.1L821.2,707.1 M817,693h-6.7v8.1h6.7V693 M825.9,693h-6.2v8.1h6.2V693 M834.7,693h-6.2v8.1h1.7l4.5-2.9V693
		 M842.7,693h-5.2v3.4L842.7,693 M817,684.4h-6.7v6.5h6.7V684.4 M825.9,684.4h-6.2v6.5h6.2V684.4 M834.7,684.4h-6.2v6.5h6.2V684.4
		 M843.6,684.4h-6.2v6.5h6.2V684.4 M853,684.4h-6.7v6.2l6.7-4.4V684.4 M817,676h-6.7v6.3h6.7V676 M825.9,676h-6.2v6.3h6.2V676
		 M834.7,676h-6.2v6.3h6.2V676 M843.6,676h-6.2v6.3h6.2V676 M853,676h-6.7v6.3h6.7V676 M833,665.2V656h19.7v9.1H833 M806.4,665.4
		v-13.8h22.4v13.8H806.4 M822,571.5v-7.1h92v7.1H822 M888.6,625.8l55.1-55.6l-3.5-3.3l22.7-9.4l0.3,0.2l-6.2,24.8l-4.6-4.3
		l-63.1,63.1l-0.3-0.4l-0.2,0.4L858,622.5l-19.7,18.2l-0.7,0.7l-21.3-29.9l0.3-0.3l21.8,15l18-20.1l0.1,0.1l0,0L888.6,625.8
		 M822,560.2v-7.1h92v7.1H822 M992.8,563.8v-21.3h21.3v21.3H992.8 M822,548.8v-7.1h92v7.1H822 M786.1,571.5v-30.2h30.2v30.2H786.1
		 M847.1,528.7v-14.3h206v14.3H847.1 M1141.4,497.7H751.6v251h5.9l35.5-23.2c-1.1-1.5-1.7-3.4-1.7-5.4c0-4.5,3.1-8.2,7.3-9.2v-0.1
		l5.9-4.2v-0.2v-5.2V676h-17v-5.9h17h5.9H853h2.2l3.7,3.7v2.2v6.4l16.4-10.7v-1h1.5l120.8-79h-4.9v-21.3h21.3V581l6.8-4.4v-4h6.1
		l13.3-8.7h-19.8v-6.1h29.2l9.3-6.1h-38v-6.1h47.4L1141.4,497.7"/>
	<polyline class="st20" points="1053.1,514.4 847.1,514.4 847.1,528.7 1053.1,528.7 1053.1,514.4 	"/>
	<polyline class="st21" points="876.8,670.7 875.3,670.7 875.3,671.7 876.8,670.7 	"/>
	<path class="st21" d="M810.3,701.1V693h6.7v8.1H810.3 M819.7,701.1V693h6.2v8.1H819.7 M810.3,690.9v-6.5h6.7v6.5H810.3
		 M819.7,690.9v-6.5h6.2v6.5H819.7 M828.6,690.9v-6.5h6.2v6.5H828.6 M837.4,690.9v-6.5h6.2v6.5H837.4 M810.3,682.3V676h6.7v6.3
		H810.3 M819.7,682.3V676h6.2v6.3H819.7 M828.6,682.3V676h6.2v6.3H828.6 M837.4,682.3V676h6.2v6.3H837.4 M846.3,682.3V676h6.7v6.3
		H846.3 M855.2,670.1H853h-42.6h-5.9h-17v5.9h17v25.1v5.2v0.2l-5.9,4.2v0.1c-4.2,1-7.3,4.8-7.3,9.2c0,2,0.6,3.9,1.7,5.4l5.1-3.4
		c-0.5-0.6-0.7-1.3-0.7-2.1c0-1.8,1.5-3.3,3.3-3.3c0.6,0,1.2,0.2,1.7,0.5s1,0.7,1.2,1.3l5.3-3.5c-0.5-0.8-1-1.4-1.7-2.1l8.3-5.9
		v-0.1h5.7l9-5.9h-1.7V693h6.2v5.2l2.7-1.8V693h5.2l3.7-2.4v-6.2h6.7v1.9l5.9-3.9V676v-2.2L855.2,670.1"/>
	<polyline class="st22" points="828.8,651.6 806.4,651.6 806.4,665.4 828.8,665.4 828.8,651.6 	"/>
	<polyline class="st23" points="852.7,656 833,656 833,665.2 852.7,665.2 852.7,656 	"/>
	<path class="st5" d="M800.7,716.8c-1.8,0-3.3,1.5-3.3,3.3c0,0.8,0.3,1.5,0.7,2.1l5.5-3.6c-0.3-0.5-0.7-1-1.2-1.3
		C801.9,716.9,801.3,716.8,800.7,716.8"/>
	<polyline class="st21" points="1014.1,570.3 992.8,570.3 992.8,591.7 997.6,591.7 1014.1,580.9 1014.1,570.3 	"/>
	<polyline class="st24" points="962.8,557.5 940.2,566.9 943.7,570.2 888.6,625.8 856.6,606.1 856.6,606.1 856.4,606 838.5,626.1 
		816.7,611.1 816.3,611.4 837.7,641.3 838.3,640.7 858,622.5 888.7,641.4 888.9,641 889.2,641.4 952.3,578.2 956.9,582.5 
		963.1,557.7 962.8,557.5 	"/>
	<polyline class="st25" points="914,541.7 822,541.7 822,548.8 914,548.8 914,541.7 	"/>
	<polyline class="st25" points="914,553.1 822,553.1 822,560.2 914,560.2 914,553.1 	"/>
	<polyline class="st25" points="914,564.4 822,564.4 822,571.5 914,571.5 914,564.4 	"/>
	<polyline class="st24" points="816.4,541.3 786.1,541.3 786.1,571.5 816.4,571.5 816.4,541.3 	"/>
</g>
<g>
	<g>
		<path class="st8" d="M979.7,179.6l-1.1-16.4l-7.8,0.5c-1.6-6.2-4.4-11.9-8.3-16.7l5.1-5.8l-12.3-10.8l-5.1,5.8
			c-3.9-2.3-8.2-4.1-12.7-5.1c-1.6-0.4-3.3-0.7-4.9-0.9l-0.5-7.8l-16.4,1.1l0.5,7.8c-6.2,1.6-11.9,4.4-16.7,8.3l-5.8-5.1l-10.8,12.3
			l5.8,5.1c-3.2,5.3-5.2,11.3-6,17.7l-7.8,0.5l1.1,16.4l7.8-0.5c1.6,6.2,4.4,11.9,8.3,16.7l-5.1,5.9l12.3,10.8l5.1-5.8
			c3.9,2.3,8.2,4.1,12.7,5.1c1.6,0.4,3.3,0.7,4.9,0.9l0.5,7.8l16.4-1.1l-0.5-7.8c6.2-1.6,11.9-4.4,16.7-8.3l5.9,5.1l10.8-12.3
			l-5.8-5.1c3.2-5.3,5.2-11.3,6-17.7L979.7,179.6z M929.5,208c-3.3,0.2-6.6-0.1-9.7-0.8c-13.9-3.2-24.6-15.2-25.6-30.2
			c-1.2-18.3,12.7-34.1,30.9-35.3c3.4-0.2,6.6,0.1,9.7,0.8c13.9,3.2,24.6,15.2,25.6,30.2C961.6,191,947.8,206.8,929.5,208z"/>
		<path class="st9" d="M1003.5,257.3c0.3-3.2,0.1-6.4-0.7-9.6l4.2-2.1l-5.3-10.5l-4.2,2.1c-2-2.5-4.5-4.6-7.3-6.2l1.5-4.5l-8.2-2.7
			l-3-1l-1.5,4.5c-3.2-0.3-6.5-0.1-9.6,0.7l-2.1-4.2l-10.5,5.3l2.1,4.2c-2.5,2-4.6,4.5-6.2,7.3l-4.5-1.5l-3.7,11.1l4.5,1.5
			c-0.3,3.2-0.1,6.4,0.7,9.6l-4.2,2.1l5.3,10.5l4.2-2.1c2,2.5,4.5,4.6,7.3,6.3l-1.5,4.5l8.2,2.7l3,1l1.5-4.5
			c3.2,0.3,6.5,0.1,9.6-0.7l2.1,4.2l10.5-5.3l-2.1-4.2c2.5-2,4.6-4.5,6.3-7.3l4.5,1.5l3.7-11.1L1003.5,257.3z M984.6,270.9
			c-2.2,1.1-4.6,1.8-7.1,1.9c-1.8,0.1-3.6,0-5.4-0.4c-5.2-1.2-9.7-4.7-12.2-9.6c-4.6-9-0.9-20.1,8.1-24.6c2.2-1.1,4.6-1.8,7.1-1.9
			c1.8-0.1,3.6,0,5.4,0.4c5.2,1.2,9.7,4.7,12.2,9.6C997.2,255.3,993.6,266.3,984.6,270.9z"/>
	</g>
	<g>
		<path class="st26" d="M985.1,57.9c0,15.6-9.5,29-22.9,34.8c-4.6,2-9.7,3.1-15,3.1c-20.9,0-38-17.1-38-38c0-4.2,0.7-8.2,2-12
			c5-15.1,19.3-26,36-26C968.1,20,985.1,37,985.1,57.9z"/>
		<path class="st5" d="M947.2,88.8c17,0,30.9-13.9,30.9-30.9s-13.9-30.8-30.9-30.8S916.3,40.9,916.3,58S930.2,88.8,947.2,88.8z"/>
		<path class="st27" d="M947.2,35.5L947.2,35.5c1,0,1.8,0.8,1.8,1.8v18.9c0,1-0.8,1.8-1.8,1.8l0,0c-1,0-1.8-0.8-1.8-1.8v-19
			C945.4,36.3,946.2,35.5,947.2,35.5z"/>
		<path class="st27" d="M933,45.3L933,45.3c0.6-0.7,1.8-0.8,2.5-0.1L947,55.5c0.7,0.6,0.8,1.8,0.1,2.5l0,0c-0.6,0.7-1.8,0.8-2.5,0.1
			l-11.5-10.3C932.4,47.2,932.4,46,933,45.3z"/>
		<circle class="st27" cx="947.2" cy="31.7" r="2"/>
		<circle class="st27" cx="974.5" cy="58.7" r="2"/>
		<circle class="st27" cx="947.5" cy="86" r="2"/>
		<circle class="st27" cx="920.2" cy="59" r="2"/>
		<circle class="st27" cx="947.2" cy="58" r="4.6"/>
	</g>
	<g id="nube_2_" class="st28">
		<g>
			<path d="M962.2,92.8c-4.6,2-9.7,3.1-15,3.1c-20.9,0-38-17.1-38-38c0-4.2,0.7-8.2,2-12c0.2,0.3,0.4,0.3,0.8,0.3
				c2.3-0.3,4.6-0.6,6.9-0.6c1.3,0,2.5,0,3.8,0.1c4.3,0.3,8.4,1.5,11.8,4.4c4,3.5,6,8,6.2,13.4c0.2,3.7-0.2,7.4-0.7,11.1
				c-0.1,0.5,0.1,0.8,0.5,1c1.7,1.1,3.5,1.7,5.5,2.1c3.8,0.8,7.2,2.3,10.1,5c1.2,1.1,2.3,2.3,3.2,3.6
				C960.6,88.3,961.6,90.5,962.2,92.8z"/>
		</g>
	</g>
	<g id="nube_1_">
		<g>
			<path class="st5" d="M871.1,117.7c-13.7,0-27.3,0-41,0c-10.2,0-20.4-0.1-30.6-0.1c-5.9,0-11.4-4.2-13.1-10.1
				c-0.7-2.5-0.9-5.1-0.8-7.7c0.2-6,1.7-11.6,4.8-16.8c2.6-4.2,6.1-7.3,10.1-9.8c4.5-2.8,9.4-4.5,14.5-5.4c3.7-0.7,7.4-1.2,11.1-1.7
				c0.6-0.1,0.7-0.3,0.8-0.8c2.2-11.7,7.6-21.5,16.1-29.4c5.2-4.8,11.2-8.1,18.1-9.8c4.3-1,8.7-1.2,13.2-1
				c5.2,0.3,10.3,1.3,15.1,3.5c6.9,3.1,12.4,8.1,16.7,14.5c0.9,1.3,1.7,2.6,2.6,4c0.2,0.4,0.4,0.5,0.9,0.4c3.6-0.5,7.1-0.8,10.7-0.5
				c4.3,0.3,8.4,1.5,11.8,4.4c4,3.5,6,8,6.2,13.3c0.2,3.7-0.2,7.4-0.7,11.1c-0.1,0.5,0.1,0.8,0.5,1c1.7,1.1,3.5,1.7,5.5,2.1
				c3.8,0.8,7.2,2.3,10.1,5c3.9,3.5,6,8.1,6.8,13.4c0.5,2.9,0.3,5.9-0.2,8.8c-0.9,4.4-3.5,7.3-7.2,9.1c-3.6,1.8-7.5,2.3-11.5,2.3
				c-14.8,0-29.6,0-44.3,0C888.5,117.7,879.8,117.7,871.1,117.7L871.1,117.7z"/>
		</g>
	</g>
	<path class="st29" d="M985.5,299.7l-0.9-3.1c2.6-0.7,5.2-1.7,7.6-3l1.4,2.9C991.1,297.9,988.3,298.9,985.5,299.7z M1001.2,291.9
		l-1.9-2.6c2.2-1.6,4.2-3.5,6.1-5.5l2.4,2.2C1005.7,288.1,1003.5,290.1,1001.2,291.9z M1013,279l-2.7-1.7c1.4-2.3,2.7-4.8,3.7-7.3
		l3,1.2C1015.8,273.8,1014.5,276.5,1013,279z M1019.3,262.6l-3.1-0.6c0.5-2.7,0.7-5.4,0.7-8.2v-0.2h3.2v0.2
		C1020.1,256.8,1019.8,259.8,1019.3,262.6z M1016.1,245.5c-0.5-2.7-1.3-5.3-2.3-7.9l3-1.2c1.1,2.7,1.9,5.6,2.4,8.5L1016.1,245.5z
		 M1010.2,230.3c-1.5-2.3-3.1-4.5-5-6.5l2.4-2.2c2,2.2,3.8,4.5,5.3,7L1010.2,230.3z M999.1,218.3c-2.2-1.6-4.5-3.1-7-4.3l1.4-2.9
		c2.6,1.3,5.1,2.8,7.5,4.6L999.1,218.3z M989.8,207.7c0,4.5-3.7,8.2-8.2,8.2s-8.2-3.7-8.2-8.2s3.7-8.2,8.2-8.2
		S989.8,203.1,989.8,207.7z M981.6,302.7c0,4.5-3.7,8.2-8.2,8.2s-8.2-3.7-8.2-8.2s3.7-8.2,8.2-8.2
		C977.9,294.5,981.6,298.2,981.6,302.7z"/>
	<path class="st29" d="M981.8,391.2c-1.2,0.8-2.5,1.5-3.8,2.1l-1.4-2.9c2.4-1.2,4.8-2.7,7-4.3l1.9,2.6
		C984.3,389.6,983,390.4,981.8,391.2z M969.7,396.4c-2.8,0.8-5.7,1.3-8.7,1.6l-0.3-3.2c2.7-0.2,5.4-0.7,8.1-1.4L969.7,396.4z
		 M992,382.8l-2.3-2.2c1.9-2,3.5-4.2,5-6.5l2.7,1.7C995.8,378.3,994,380.7,992,382.8z M952.3,397.9c-2.9-0.3-5.8-0.9-8.6-1.7
		l0.9-3.1c2.6,0.8,5.3,1.3,8.1,1.6L952.3,397.9z M935.5,393c-2.6-1.3-5.1-2.9-7.4-4.7l1.9-2.5c2.2,1.7,4.5,3.1,6.9,4.4L935.5,393z
		 M921.5,382.3c-1.9-2.2-3.7-4.5-5.2-7.1l2.7-1.7c1.4,2.3,3.1,4.6,4.9,6.6L921.5,382.3z M915.4,366.2l-3,1.1c-1-2.7-1.8-5.6-2.4-8.5
		l3.1-0.6C913.7,361,914.4,363.7,915.4,366.2z M912.5,350.2h-3.2c0-2.9,0.3-5.9,0.9-8.8l3.1,0.6
		C912.8,344.7,912.5,347.4,912.5,350.2z M915.6,334.1l-3-1.2c1.1-2.7,2.4-5.4,4-7.9l2.7,1.7C917.9,329.1,916.6,331.6,915.6,334.1z
		 M961.3,306.2c-2.7-0.3-5.5-0.3-8.2,0l-0.3-3.2c2.9-0.3,5.9-0.2,8.8,0.1L961.3,306.2z M924.3,320.3l-2.4-2.2c2-2.2,4.2-4.1,6.5-5.9
		l1.9,2.6C928.2,316.4,926.1,318.3,924.3,320.3z M945,307.6c-2.6,0.7-5.2,1.7-7.7,2.9l-1.4-2.9c2.6-1.3,5.4-2.4,8.2-3.1L945,307.6z
		 M1007.7,375.7l-0.3-24l-20.2,13.1L1007.7,375.7z"/>
</g>
<g>
	<path class="st5" d="M1138.1,389.2H1118v26c0,3.8-3.1,6.9-6.9,6.9H1080v8.7c0,2.2,1.8,3.9,3.9,3.9h30.5l12.8,10.7
		c1.7,1.4,2.6,0.8,2-1.3l-2.5-9.3c0,0,0,0,0-0.1h11.4c2.2,0,3.9-1.8,3.9-3.9v-37.7C1142.1,390.9,1140.3,389.2,1138.1,389.2z"/>
	<path class="st5" d="M1056.9,419.1h6c0,0,0,0,0,0.1l-2.5,9.3c-0.4,1.3-0.1,2,0.5,2c0.4,0,0.9-0.2,1.5-0.8l12.8-10.7h4.9h31.1
		c2.2,0,3.9-1.8,3.9-3.9v-26v-11.7c0-2.2-1.8-3.9-3.9-3.9H1057c-2.2,0-3.9,1.8-3.9,3.9v37.7C1053,417.4,1054.7,419.1,1056.9,419.1z"
		/>
</g>
<g>
	<g>
		<path class="st8" d="M83.7,508l-0.9-13.1l-6.2,0.4c-1.3-5-3.5-9.5-6.6-13.4l4.1-4.7l-9.8-8.6l-4.1,4.7c-3.1-1.9-6.5-3.3-10.2-4.1
			c-1.3-0.3-2.6-0.5-3.9-0.7l-0.4-6.2l-13.1,0.9l0.4,6.2c-5,1.3-9.5,3.5-13.4,6.6l-4.7-4.1l-8.6,9.9l4.7,4.1
			c-2.5,4.2-4.2,9-4.8,14.1L0,500.3l0.9,13.1l6.2-0.4c1.3,5,3.5,9.5,6.6,13.4L9.5,531l9.8,8.6l4.1-4.7c3.1,1.9,6.5,3.3,10.2,4.1
			c1.3,0.3,2.6,0.5,3.9,0.7L38,546l13.1-0.9l-0.4-6.2c5-1.3,9.5-3.5,13.4-6.6l4.7,4.1l8.6-9.9l-4.7-4.1c2.5-4.2,4.2-9,4.8-14.1
			L83.7,508z M43.6,530.6c-2.7,0.2-5.3-0.1-7.8-0.6c-11.1-2.6-19.6-12.1-20.4-24.1c-1-14.6,10.1-27.2,24.7-28.2
			c2.7-0.2,5.3,0.1,7.8,0.6c11.1,2.6,19.6,12.1,20.4,24.1C69.2,517,58.2,529.6,43.6,530.6z"/>
		<path class="st30" d="M102.2,569.7c0.3-2.9,0.1-5.8-0.7-8.6l3.8-1.9l-4.7-9.4l-3.8,1.9c-1.8-2.2-4-4.1-6.5-5.6l1.3-4l-7.3-2.4
			l-2.7-0.9l-1.3,4c-2.9-0.3-5.8-0.1-8.6,0.7l-1.9-3.8l-9.4,4.7l1.9,3.8c-2.2,1.8-4.1,4-5.6,6.5l-4-1.3l-3.3,10l4,1.3
			c-0.3,2.9-0.1,5.8,0.6,8.6l-3.8,1.9l4.7,9.4l3.8-1.9c1.8,2.3,4,4.1,6.5,5.6l-1.3,4l7.3,2.4l2.7,0.9l1.3-4c2.9,0.3,5.8,0.1,8.6-0.7
			l1.9,3.8l9.4-4.7l-1.9-3.8c2.3-1.8,4.1-4,5.6-6.5l4,1.3l3.3-10L102.2,569.7z M85.3,581.9c-2,1-4.1,1.6-6.3,1.7
			c-1.6,0.1-3.3,0-4.8-0.4c-4.6-1.1-8.7-4.2-10.9-8.6c-4.1-8.1-0.8-18,7.2-22.1c2-1,4.1-1.6,6.3-1.7c1.6-0.1,3.3,0,4.8,0.4
			c4.6,1.1,8.7,4.2,10.9,8.6C96.6,567.9,93.3,577.8,85.3,581.9z"/>
	</g>
	<path class="st29" d="M36.3,574.1c-0.2-1.3-0.3-2.5-0.4-3.8l2.8-0.2c0.1,2.4,0.5,4.8,1.1,7.2L37,578
		C36.7,576.7,36.4,575.4,36.3,574.1z M36.1,562.6c0.3-2.6,0.9-5.1,1.7-7.6l2.7,0.9c-0.7,2.3-1.3,4.7-1.6,7.1L36.1,562.6z
		 M39.5,585.3l2.6-1.2c1,2.2,2.2,4.3,3.6,6.3l-2.3,1.6C41.9,589.9,40.6,587.7,39.5,585.3z M40.9,547.9c1.2-2.3,2.7-4.4,4.3-6.4
		l2.2,1.8c-1.5,1.9-2.9,3.9-4,6L40.9,547.9z M50.6,535.9c2-1.7,4.1-3.2,6.3-4.5l1.4,2.4c-2.1,1.2-4.1,2.6-5.9,4.2L50.6,535.9z
		 M64,528.3c2.4-0.8,5-1.5,7.5-1.9l0.4,2.8c-2.4,0.4-4.8,0.9-7,1.7L64,528.3z M79.2,528.8l0.1-2.8c2.6,0.1,5.2,0.4,7.7,1l-0.6,2.8
		C84,529.2,81.6,528.9,79.2,528.8z M93.2,531.9l1.1-2.6c2.4,1,4.7,2.3,6.8,3.7l-1.6,2.3C97.6,534,95.4,532.9,93.2,531.9z
		 M105.2,539.9l2-2c1.8,1.8,3.5,3.8,5,5.9l-2.3,1.6C108.5,543.4,106.9,541.6,105.2,539.9z M112.3,586.6c1.1-2.1,2.1-4.4,2.8-6.6
		l2.7,0.9c-0.8,2.5-1.8,4.9-3,7.1L112.3,586.6z M113.5,551.7l2.6-1.2c1.1,2.3,1.9,4.8,2.5,7.3l-2.7,0.7
		C115.3,556.2,114.5,553.9,113.5,551.7z M116.7,572.9c0.3-2.4,0.4-4.8,0.2-7.2l2.8-0.2c0.2,2.6,0.1,5.2-0.3,7.7L116.7,572.9z
		 M40,600.5l19.6,8l-3.7-20.8L40,600.5z"/>
</g>
<g>
	<g>
		<path class="st5" d="M174.6,204.7c13.2-4.7,27.7,2.3,32.4,15.5c3,8.6,1.2,17.8-4.2,24.4l4.4,20.6l-20.1,7.1l-9.5-18.9
			c-8.3-1.8-15.5-7.8-18.6-16.4C154.4,223.9,161.3,209.4,174.6,204.7z"/>
		<g>
			
				<linearGradient id="SVGID_1_" gradientUnits="userSpaceOnUse" x1="173.6767" y1="549.7572" x2="198.6501" y2="549.7572" gradientTransform="matrix(1 0 0 -1 0 796)">
				<stop  offset="0" style="stop-color:#D56214"/>
				<stop  offset="9.551107e-02" style="stop-color:#D66517"/>
				<stop  offset="0.5217" style="stop-color:#D96D21"/>
				<stop  offset="1" style="stop-color:#DA7024"/>
			</linearGradient>
			<path class="st31" d="M189.7,260.1c0.3,0.5,0.2,1.1-0.3,1.4c-0.5,0.3-1.1,0.2-1.4-0.3l-9.9-15.2l-2.7-7.8l0.2,0.2
				c-0.1-0.1-0.1-0.1-0.2-0.2l0,0c0.5,0.2,1,0.5,1.5,0.6c3,1.1,6.4,1,9.5-0.1c3-1.1,5.7-3.1,7.2-5.8c0.2-0.5,0.5-0.9,0.6-1.5
				c0.2-0.5,0.8-0.8,1.3-0.6c0.4,0.1,0.7,0.5,0.7,0.9l2.6,25.8c0.1,0.6-0.3,1-0.9,1.1c-0.6,0.1-1-0.3-1.1-0.9l-2.2-22.5
				c-1.8,2.5-4.4,4.4-7.4,5.4c-3.1,1.1-6.6,1.3-9.7,0.4L189.7,260.1z M178.1,246l-4.3-6.5c-0.3-0.5-0.2-1.1,0.3-1.4
				c0.3-0.2,0.7-0.2,1.1,0l0.1,0.1l0,0l-0.1-0.1l0.2,0.2L178.1,246z"/>
		</g>
		
			<linearGradient id="SVGID_2_" gradientUnits="userSpaceOnUse" x1="179.3455" y1="531.7445" x2="210.0324" y2="531.7445" gradientTransform="matrix(1 0 0 -1 0 796)">
			<stop  offset="0" style="stop-color:#D56214"/>
			<stop  offset="9.551107e-02" style="stop-color:#D66517"/>
			<stop  offset="0.5217" style="stop-color:#D96D21"/>
			<stop  offset="1" style="stop-color:#DA7024"/>
		</linearGradient>
		<path class="st32" d="M179.3,261.6l27.2-9.6l3.1,13.1c0.6,2.4,0.9,3.5-2.2,4.6l-17.7,6.3c-3.1,1.1-3.5,0-4.6-2.2L179.3,261.6z"/>
		<g>
			<path class="st5" d="M182,179.5c0-0.7,0.6-1.3,1.3-1.2c0.7,0,1.3,0.6,1.3,1.3l-0.2,16.2c0,0.7-0.6,1.3-1.3,1.2
				c-0.7,0-1.3-0.6-1.2-1.3L182,179.5z"/>
			<path class="st5" d="M198.7,182.1c0.2-0.7,1-1,1.6-0.7c0.7,0.2,1,1,0.7,1.6l-5.7,15.2c-0.2,0.7-1,1-1.6,0.7c-0.7-0.2-1-1-0.7-1.6
				L198.7,182.1z"/>
			<path class="st5" d="M213.5,190.3c0.5-0.5,1.2-0.6,1.8-0.1c0.5,0.5,0.6,1.2,0.1,1.8l-10.5,12.4c-0.5,0.5-1.2,0.6-1.8,0.1
				c-0.5-0.5-0.6-1.2-0.1-1.8L213.5,190.3z"/>
			<path class="st5" d="M224.6,203.1c0.6-0.3,1.4-0.1,1.7,0.5c0.3,0.6,0.1,1.4-0.5,1.7l-14.2,8c-0.6,0.3-1.4,0.1-1.7-0.5
				c-0.3-0.6-0.1-1.4,0.5-1.7L224.6,203.1z"/>
			<path class="st5" d="M165.4,182.7c-0.2-0.7,0.1-1.4,0.8-1.6c0.7-0.3,1.4,0.1,1.6,0.7l5.4,15.4c0.2,0.7-0.1,1.4-0.8,1.6
				c-0.7,0.2-1.4-0.1-1.6-0.8L165.4,182.7z"/>
			<path class="st5" d="M150.9,191.4c-0.4-0.5-0.4-1.3,0.2-1.8c0.5-0.4,1.3-0.4,1.8,0.2l10.3,12.6c0.4,0.5,0.4,1.3-0.2,1.8
				c-0.5,0.4-1.3,0.4-1.8-0.2L150.9,191.4z"/>
			<path class="st5" d="M140.3,204.5c-0.6-0.4-0.8-1.1-0.4-1.7c0.4-0.6,1.1-0.8,1.7-0.4l14,8.3c0.6,0.4,0.8,1.1,0.4,1.7
				c-0.4,0.6-1.1,0.8-1.7,0.4L140.3,204.5z"/>
			<path class="st5" d="M134.7,220.5c-0.7-0.1-1.1-0.8-1-1.5s0.8-1.1,1.5-1l16,3c0.7,0.1,1.1,0.8,1,1.5c-0.1,0.7-0.8,1.1-1.5,1
				L134.7,220.5z"/>
			<path class="st5" d="M135,237.4c-0.7,0.1-1.3-0.3-1.5-1c-0.1-0.7,0.3-1.3,1-1.5l16.1-2.7c0.7-0.1,1.3,0.3,1.5,1
				c0.1,0.7-0.3,1.3-1,1.5L135,237.4z"/>
		</g>
	</g>
	<g>
		<path class="st7" d="M290.4,324c3.7,5.4,8.4,9.9,13.8,13.2l-2.9,7.4l15.7,6.1l2.9-7.4c6.2,1.2,12.7,1.1,19.1-0.4l3.2,7.3l15.4-6.8
			l-3.2-7.3c1.4-1,2.8-2,4.1-3.1c3.6-3.1,6.7-6.7,9.2-10.7l7.4,2.9l6.1-15.7l-7.4-2.9c1.2-6.2,1.1-12.7-0.4-19.2l7.3-3.2l-6.8-15.4
			l-7.3,3.2c-3.7-5.4-8.5-9.9-13.8-13.2l2.9-7.4l-15.7-6.1l-2.9,7.4c-6.2-1.2-12.7-1.1-19.2,0.4l-3.2-7.3l-15.4,6.8l3.2,7.3
			c-1.4,1-2.8,2-4.1,3.1c-3.6,3.1-6.7,6.7-9.2,10.7l-7.4-2.9l-6.1,15.7l7.4,2.9c-1.2,6.2-1.1,12.7,0.4,19.2l-7.3,3.2l6.8,15.4
			L290.4,324z M297.3,311.8c-6.2-14.1-2.1-30.1,8.9-39.6c2.5-2.1,5.3-3.9,8.5-5.3c17.2-7.6,37.3,0.2,44.9,17.4
			c6.2,14.1,2.1,30.1-8.9,39.6c-2.5,2.1-5.3,4-8.5,5.3C325,336.8,304.9,329,297.3,311.8z"/>
		<path class="st8" d="M294.8,412.5l9.7,9.4l3.8-3.9c3.2,2,6.6,3.4,10.3,4.1l0.1,5.5l13.5-0.2l-0.1-5.5c3.6-0.8,7.1-2.3,10.2-4.3
			l3.9,3.8l2.5-2.6l6.9-7.1l-3.9-3.8c2-3.2,3.3-6.6,4.1-10.3l5.5-0.1l-0.2-13.5l-5.5,0.1c-0.8-3.6-2.3-7-4.4-10.2l3.8-3.9l-9.7-9.4
			l-3.8,3.9c-3.2-2-6.6-3.4-10.3-4.1l-0.1-5.5l-13.5,0.2l0.1,5.5c-3.6,0.8-7.1,2.3-10.2,4.4l-3.9-3.8l-2.5,2.6l-6.9,7.1l3.9,3.8
			c-2,3.2-3.4,6.6-4.1,10.3l-5.5,0.1l0.2,13.5l5.5-0.1c0.8,3.6,2.3,7,4.4,10.2L294.8,412.5z M303.9,391.6
			c-0.1-6.4,2.7-12.3,7.3-16.3c1.6-1.3,3.3-2.5,5.3-3.3c2.6-1.1,5.4-1.7,8.2-1.8c11.6-0.1,21.2,9.2,21.4,20.8
			c0.1,6.4-2.7,12.3-7.3,16.3c-1.6,1.3-3.3,2.5-5.3,3.3c-2.6,1.1-5.4,1.7-8.3,1.8C313.6,412.6,304,403.2,303.9,391.6z"/>
	</g>
	<g>
		<path class="st33" d="M389.8,342.6c0.2-0.2,0.3-0.4,0.4-0.7c0.3-1.5-1.4-2.4-2.5-1.4l-0.1,0.1l-0.4,0.4l-0.4,0.4l-0.4,0.4
			l-0.4,0.4l-0.3,0.3c-0.2,0.2-0.4,0.5-0.5,0.8c-0.3,1.4,1.3,2.4,2.4,1.4l0.4-0.3l0.4-0.4l0.4-0.4l0.4-0.4L389.8,342.6L389.8,342.6z
			"/>
		<path class="st33" d="M400.3,328.2c0.8-1.4-1-2.9-2.2-1.8c-0.1,0.1-0.2,0.2-0.3,0.4l-0.2,0.3l-0.4,0.7l-0.4,0.7l-0.4,0.6l-0.1,0.2
			c-0.8,1.3,0.8,2.9,2.1,1.9c0.1-0.1,0.2-0.2,0.3-0.4l0.1-0.2l0.4-0.7l0.4-0.7l0.4-0.7L400.3,328.2z"/>
		<path class="st33" d="M408,312.4c0.7-1.6-1.5-2.8-2.5-1.4c-0.1,0.1-0.1,0.2-0.1,0.3l-0.2,0.6l-0.4,0.8l-0.4,0.8l-0.2,0.4
			c-0.6,1.5,1.3,2.8,2.4,1.6c0.1-0.1,0.2-0.2,0.3-0.4l0.2-0.4l0.4-0.8l0.4-0.9L408,312.4z"/>
		<path class="st33" d="M413.9,295.8c0.5-1.5-1.5-2.6-2.5-1.4c-0.1,0.2-0.2,0.3-0.3,0.5l-0.2,0.5l-0.3,1l-0.3,1l-0.1,0.3
			c-0.5,1.6,1.7,2.7,2.6,1.2c0.1-0.1,0.1-0.2,0.1-0.3l0.1-0.3l0.3-1l0.3-1L413.9,295.8z"/>
		<path class="st33" d="M418.4,278.8c0.1-0.6-0.1-1.3-0.7-1.6c-0.8-0.5-2,0-2.2,0.9l-0.2,1l-0.2,1.1l-0.2,0.8
			c-0.3,1.5,1.5,2.4,2.5,1.3c0.2-0.2,0.3-0.4,0.3-0.6l0.2-0.8l0.3-1.1L418.4,278.8z"/>
		<path class="st33" d="M421.7,261.5c0.2-1.7-2.1-2.4-2.8-0.7c0,0.1-0.1,0.2-0.1,0.3l-0.1,0.4l-0.2,1.1l-0.2,1.1v0.2
			c-0.3,1.5,1.8,2.4,2.7,1c0.1-0.2,0.2-0.3,0.2-0.5v-0.2l0.2-1.1l0.2-1.1L421.7,261.5z"/>
		<path class="st33" d="M423.7,244c0.1-1.7-2.2-2.2-2.8-0.6c0,0.1-0.1,0.2-0.1,0.3v0.2l-0.1,1.2l-0.1,1.2v0.3
			c-0.1,0.6,0.3,1.2,0.8,1.4c0.9,0.5,2-0.1,2.1-1.2v-0.3l0.1-1.2L423.7,244L423.7,244z"/>
		<path class="st33" d="M424.6,226.4c0-0.3-0.1-0.7-0.3-1c-0.9-1-2.5-0.4-2.6,0.9v0.7v1.2v1c0,1.5,2.1,2.1,2.8,0.7
			c0.1-0.2,0.1-0.4,0.1-0.6v-1v-1.2V226.4z"/>
		<path class="st33" d="M424.1,208.8c-0.1-1.6-2.4-1.9-2.9-0.3c0,0.2-0.1,0.3-0.1,0.5l0.1,0.9l0.1,1.2v0.8c0.1,1.6,2.4,1.9,2.8,0.4
			c0-0.2,0.1-0.3,0.1-0.5V211l-0.1-1.2V208.8z"/>
		<path class="st33" d="M422.3,191.3c-0.1-0.7-0.8-1.3-1.5-1.3c-0.9,0-1.5,0.8-1.4,1.7l0.1,0.9l0.2,1.2l0.1,0.7c0,0.4,0.3,0.8,0.7,1
			c1.1,0.7,2.4-0.2,2.2-1.4l-0.1-0.7l-0.2-1.2L422.3,191.3z"/>
		<path class="st33" d="M419,174c-0.4-1.6-2.7-1.5-2.9,0.2c0,0.2,0,0.3,0,0.5l0.2,0.9l0.3,1.2l0.2,0.8c0.4,1.5,2.5,1.5,2.8,0
			c0.1-0.2,0.1-0.4,0-0.7l-0.2-0.8l-0.3-1.2L419,174z"/>
		<path class="st33" d="M414.2,157.1c-0.3-0.9-1.3-1.2-2.1-0.8c-0.6,0.3-0.9,1.1-0.7,1.7l0.3,0.7l0.4,1.2l0.3,0.8
			c0.5,1.5,2.7,1.3,2.8-0.3c0-0.2,0-0.4-0.1-0.6l-0.3-0.9l-0.4-1.2L414.2,157.1z"/>
		<path class="st33" d="M407.6,140.7c-0.7-1.5-3.1-0.8-2.7,0.9c0,0.1,0.1,0.2,0.1,0.3l0.3,0.6l0.5,1.1l0.4,0.9
			c0.6,1.4,2.8,1,2.8-0.6c0-0.2,0-0.4-0.1-0.6l-0.4-0.9l-0.5-1.2L407.6,140.7z"/>
		<path class="st33" d="M399.2,125.2c-0.8-1.3-2.9-0.6-2.7,0.9c0,0.2,0.1,0.4,0.2,0.6l0.2,0.3l0.7,1.1l0.6,1.1
			c0.9,1.4,3,0.6,2.7-1.1c0-0.2-0.1-0.3-0.2-0.4l-0.7-1.1l-0.7-1.1L399.2,125.2z"/>
		<polygon class="st33" points="386.4,128.9 384.5,105.7 405.1,116.5 		"/>
		<path class="st33" d="M371.2,346.9c-1.4-0.6-2.7,1.2-1.6,2.4c0.2,0.2,0.3,0.3,0.5,0.4l0.4,0.2l0.4,0.1l0.4,0.1l0.4,0.1l0.4,0.1
			l0.4,0.1l0.4,0.1h0.1c1.6,0.2,2.3-1.9,0.8-2.7c-0.2-0.1-0.3-0.1-0.5-0.2h-0.1h-0.3l-0.3-0.1l-0.3-0.1l-0.3-0.1l-0.3-0.1l-0.3-0.1
			L371.2,346.9z"/>
	</g>
	<g>
		<path class="st33" d="M386.5,335.2c0.9-1.3-0.7-2.9-2.1-2c-0.1,0.1-0.3,0.2-0.4,0.4l-0.4,0.5l-0.4,0.6l-0.4,0.6l-0.4,0.6l-0.1,0.1
			c-1,1.3,0.7,3,2,2.1c0.1-0.1,0.2-0.2,0.3-0.3l0.1-0.1l0.4-0.6l0.4-0.6l0.4-0.6L386.5,335.2z"/>
		<path class="st33" d="M394.6,319.4c0.6-1.6-1.5-2.8-2.6-1.4c-0.1,0.1-0.1,0.2-0.1,0.3l-0.2,0.5l-0.3,0.8l-0.3,0.8l-0.3,0.6
			c-0.6,1.5,1.2,2.8,2.4,1.6c0.1-0.1,0.2-0.3,0.3-0.4l0.3-0.6l0.3-0.8l0.3-0.8L394.6,319.4z"/>
		<path class="st33" d="M400.3,302.7c0.4-1.4-1.4-2.5-2.4-1.4c-0.2,0.2-0.3,0.4-0.4,0.6l-0.1,0.3l-0.3,0.9l-0.3,0.9l-0.2,0.6
			c-0.4,1.4,1.4,2.5,2.5,1.4c0.2-0.2,0.3-0.3,0.3-0.6l0.2-0.6l0.3-0.9l0.3-1L400.3,302.7z"/>
		<path class="st33" d="M404.1,285.5c0.1-0.5-0.1-1.1-0.5-1.4c-0.9-0.7-2.2-0.2-2.3,0.9l-0.1,0.3l-0.2,1l-0.2,1l-0.1,0.4
			c-0.3,1.6,1.9,2.4,2.7,1c0.1-0.1,0.1-0.3,0.1-0.4l0.1-0.5l0.2-1l0.2-1.1L404.1,285.5z"/>
		<path class="st33" d="M406.5,268.1c0.1-1.5-1.7-2.2-2.6-1c-0.2,0.2-0.3,0.4-0.3,0.7v0.4l-0.1,1.1l-0.1,1.1v0.3
			c-0.2,1.6,1.9,2.3,2.7,0.9c0.1-0.2,0.2-0.4,0.2-0.6v-0.3l0.1-1.1l0.1-1.1L406.5,268.1z"/>
		<path class="st33" d="M407.6,250.5c0-1.6-2.3-2.1-2.8-0.5c0,0.1-0.1,0.3-0.1,0.4v0.8v1.1v0.9c0,1.6,2.1,2.1,2.8,0.7
			c0.1-0.2,0.1-0.4,0.1-0.6v-1v-1.2V250.5z"/>
		<path class="st33" d="M407.4,232.9c-0.1-1.3-1.6-1.9-2.5-0.9c-0.3,0.3-0.4,0.6-0.4,1.1v0.9v1.2v0.9c0.1,1.7,2.5,1.9,2.9,0.3
			c0-0.1,0-0.3,0-0.4v-0.9l-0.1-1.2L407.4,232.9z"/>
		<path class="st33" d="M405.8,215.4c-0.1-0.5-0.4-1-0.9-1.2c-1-0.4-2.1,0.4-2,1.5l0.1,0.8l0.1,1.2l0.1,0.9c0.2,1.6,2.4,1.8,2.9,0.2
			c0-0.2,0.1-0.3,0-0.5l-0.1-0.9l-0.1-1.2L405.8,215.4z"/>
		<path class="st33" d="M402.8,198c-0.3-1.6-2.6-1.5-2.9,0.1c0,0.2,0,0.3,0,0.5l0.2,0.8l0.2,1.1l0.2,0.9c0.3,1.4,2.4,1.6,2.8,0.1
			c0.1-0.2,0.1-0.5,0-0.7l-0.2-1l-0.2-1.1L402.8,198z"/>
		<path class="st33" d="M398.2,181c-0.5-1.5-2.7-1.3-2.8,0.3c0,0.2,0,0.4,0.1,0.6l0.3,0.9l0.3,1.1l0.2,0.7c0.2,0.6,0.8,1.1,1.5,1
			c0.9,0,1.6-1,1.3-1.9l-0.2-0.8l-0.3-1.1L398.2,181z"/>
		<path class="st33" d="M391.7,164.6c-0.7-1.4-2.8-0.9-2.8,0.7c0,0.2,0,0.4,0.1,0.6l0.2,0.4l0.5,1l0.5,1l0.1,0.2
			c0.6,1.5,2.9,1,2.8-0.7c0-0.2-0.1-0.3-0.1-0.5l-0.1-0.2l-0.5-1l-0.5-1L391.7,164.6z"/>
		<path class="st33" d="M383.1,149.1c-0.8-1.3-2.9-0.5-2.7,1c0,0.2,0.1,0.4,0.2,0.6l0.2,0.3l0.6,0.9l0.6,0.9l0.2,0.4
			c0.8,1.3,2.9,0.6,2.7-1c0-0.2-0.1-0.3-0.2-0.5l-0.2-0.4l-0.6-0.9l-0.6-0.9L383.1,149.1z"/>
		<path class="st33" d="M372.1,135.2c-1-1.1-2.8-0.1-2.5,1.3c0.1,0.3,0.2,0.5,0.4,0.7l0.4,0.4l0.7,0.8l0.7,0.8l0.1,0.2
			c0.2,0.3,0.5,0.4,0.8,0.5c1.4,0.2,2.3-1.3,1.4-2.4l-0.2-0.2l-0.7-0.8l-0.7-0.8L372.1,135.2z"/>
		<path class="st33" d="M358.8,123.6c-1.3-0.9-2.9,0.6-2.1,2c0.1,0.2,0.2,0.3,0.4,0.4l0.7,0.5l0.9,0.6l0.8,0.6
			c0.5,0.4,1.3,0.4,1.8,0c0.7-0.6,0.7-1.7,0-2.3l-0.8-0.6l-0.9-0.7L358.8,123.6z"/>
		<polygon class="st33" points="345.8,131.7 332.6,111.7 356.6,111.2 		"/>
		<path class="st33" d="M370.1,346.9c-0.4,0.2-0.7,0.5-0.8,0.9c-0.4,1.2,0.8,2.3,2,1.8l0.5-0.2l0.5-0.3l0.5-0.3l0.5-0.3l0.5-0.3
			l0.2-0.1c0.4-0.3,0.7-0.7,0.7-1.2c0-1.1-1.2-1.9-2.2-1.3l-0.2,0.1l-0.4,0.3l-0.4,0.2l-0.4,0.2l-0.4,0.2L370.1,346.9z"/>
	</g>
	<g>
		<path class="st6" d="M362.1,183.6c13.2-12.5,32.1-13.9,42.2-3.2s7.7,29.5-5.5,42c-1.3,1.2-2.6,2.3-3.9,3.3
			c-0.3,10-5.5,16.7-11.3,22.4l-1.2-1.3c1.7-4.6,1.8-10.1-1.3-13.3c-0.4-0.5-0.9-0.9-1.4-1.2c-8.8,1.6-17.4-0.6-23.1-6.7
			C346.5,214.8,349,196,362.1,183.6z"/>
		<path class="st5" d="M370.2,206.3l6.3,13.9c0.3,0.6,0.4,0.7,1,0.4l16.6-7.5c0.6-0.3,1.4-0.8,1.2-1.4l-6.3-13.9
			c-0.3-0.6-1.5-0.9-2-0.6l-1.3,0.6l-1.6-3.6c-1.8-4-6.3-5.8-10.3-4s-5.5,6.4-3.7,10.4l1.6,3.6l-1.2,0.6
			C369.7,205,370,205.7,370.2,206.3z M372.7,199.3c-1.1-2.5-0.3-5.3,2.2-6.4c2.5-1.1,5.1,0.1,6.2,2.6l1.6,3.6l-8.4,3.8L372.7,199.3z
			"/>
	</g>
	<g id="nube_3_">
		<g>
			<path class="st5" d="M178.1,116.3c-12.2,0-24.4,0-36.6,0c-9.1,0-18.2-0.1-27.3-0.1c-5.3,0-10.2-3.8-11.7-9
				c-0.6-2.2-0.8-4.6-0.7-6.9c0.2-5.4,1.5-10.4,4.3-15c2.3-3.8,5.4-6.5,9-8.8c4-2.5,8.4-4,13-4.8c3.3-0.6,6.6-1.1,9.9-1.5
				c0.5-0.1,0.6-0.3,0.7-0.7c2-10.5,6.8-19.2,14.4-26.3c4.6-4.3,10-7.2,16.2-8.8c3.8-0.9,7.8-1.1,11.8-0.9c4.6,0.3,9.2,1.2,13.5,3.1
				c6.2,2.8,11.1,7.2,14.9,13c0.8,1.2,1.5,2.3,2.3,3.6c0.2,0.4,0.4,0.4,0.8,0.4c3.2-0.4,6.3-0.7,9.6-0.4c3.8,0.3,7.5,1.3,10.5,3.9
				c3.6,3.1,5.4,7.1,5.5,11.9c0.2,3.3-0.2,6.6-0.6,9.9c-0.1,0.4,0.1,0.7,0.4,0.9c1.5,1,3.1,1.5,4.9,1.9c3.4,0.7,6.4,2.1,9,4.5
				c3.5,3.1,5.4,7.2,6.1,12c0.4,2.6,0.3,5.3-0.2,7.9c-0.8,3.9-3.1,6.5-6.4,8.1c-3.2,1.6-6.7,2.1-10.3,2.1c-13.2,0-26.4,0-39.6,0
				C193.7,116.3,185.9,116.3,178.1,116.3L178.1,116.3z"/>
		</g>
	</g>
	<g>
		<path id="MobileMe_15_" class="st9" d="M307.4,110.3c0,13.5-10.9,24.5-24.3,24.5h-75.3c-13.4,0-24.3-11-24.3-24.5
			c0-12.2,8.9-22.4,20.5-24.2c-0.1-0.9-0.2-1.7-0.2-2.7c0-8.6,6.9-15.5,15.4-15.5c3.8,0,7.3,1.4,10,3.7
			c4.8-10.9,10.9-20.8,28.1-20.8c20.9,0,30.8,16.2,30.8,33.4c0,0.7,0,1.4-0.1,2.1C299.1,88.6,307.4,98.5,307.4,110.3z"/>
		<path class="st5" d="M226.6,87.1c0-4.6,3.7-8.4,8.4-8.4c4.6,0,8.4,3.7,8.4,8.4c0,4.6-3.7,8.4-8.4,8.4
			C230.3,95.4,226.6,91.7,226.6,87.1z M239,105.9c-0.7-1.2-1.2-2.6-1.2-4.1c0-2.3,1-4.3,2.5-5.7c-0.6-0.1-1.2-0.2-1.8-0.2h-7.1
			c-5.9,0-10.7,4.8-10.7,10.7v8.7v0.1l0.6,0.2c4.8,1.5,9.1,2.2,12.8,2.3v-4C234.1,110.5,236.1,107.5,239,105.9z M258,95.4
			c4.6,0,8.4-3.7,8.4-8.4c0-4.6-3.7-8.4-8.4-8.4c-4.6,0-8.4,3.7-8.4,8.4C249.7,91.7,253.4,95.4,258,95.4z M261.6,96h-7.1
			c-1.2,0-2.3,0.2-3.3,0.5c1.3,1.4,2.1,3.3,2.1,5.3c0,1.5-0.4,2.9-1.2,4.1c2.9,1.6,4.8,4.6,4.8,8.1v3.9c0.7,0,1.4,0.1,2,0.1
			c7.9,0,12.4-2.2,12.7-2.4l0.6-0.3h0.1v-8.7C272.3,100.8,267.5,96,261.6,96z M240.4,102.1c0,2.9,2.3,5.2,5.2,5.2s5.2-2.3,5.2-5.2
			c0-2.9-2.3-5.2-5.2-5.2S240.4,99.3,240.4,102.1z M247.7,107.7h-4.4c-3.7,0-6.6,3-6.6,6.6v5.4v0.1l0.4,0.1c3.5,1.1,6.5,1.5,9,1.5
			c4.9,0,7.7-1.4,7.9-1.5l0.3-0.2l0,0v-5.4C254.4,110.7,251.4,107.7,247.7,107.7z"/>
	</g>
</g>
</svg>
