<?xml version="1.0" encoding="utf-8"?>
<!-- Generator: Adobe Illustrator 19.2.0, SVG Export Plug-In . SVG Version: 6.00 Build 0)  -->
<svg version="1.1" id="Layer_1" xmlns="http://www.w3.org/2000/svg" xmlns:xlink="http://www.w3.org/1999/xlink" x="0px" y="0px"
	 viewBox="0 0 918.5 500" style="enable-background:new 0 0 918.5 500;" xml:space="preserve">
<style type="text/css">
	.st0{fill:#FFFFFF;}
</style>
<path class="st0" d="M833.7,307.1c-11.9-82-83.6-145-170.3-145c-5.3,0-10.5,0.3-15.6,0.7C612.4,67.7,520.8,0,413.4,0
	c-133.8,0-243,105.1-249.7,237.3c-9.8-2.3-20.1-3.6-30.6-3.6C59.6,233.7,0,293.3,0,366.8c0,68.3,51.5,124.6,117.7,132.2l702.7,0.9
	c12.9,0,25.2-2.5,36.6-7c0.1,0,0.2-0.1,0.3-0.1c35.9-14.4,61.2-49.1,61.2-89.7C918.5,354,881.6,313.4,833.7,307.1z"/>
</svg>
