<?xml version="1.0" encoding="utf-8"?>
<!-- Generator: Adobe Illustrator 19.2.0, SVG Export Plug-In . SVG Version: 6.00 Build 0)  -->
<svg version="1.1" id="Layer_1" xmlns="http://www.w3.org/2000/svg" xmlns:xlink="http://www.w3.org/1999/xlink" x="0px" y="0px"
	 viewBox="0 0 1010 1010" style="enable-background:new 0 0 1010 1010;" xml:space="preserve">
<style type="text/css">
	.st0{fill:#29B2FE;}
	.st1{fill:#FFFFFF;}
	.st2{fill:#323232;}
</style>
<g id="globe-www">
	<path id="label_2_" class="st0" d="M505,0c278.9,0,505,226.1,505,505c0,278.9-226.1,505-505,505S0,783.9,0,505
		C0,226.1,226.1,0,505,0z"/>
	<g id="icon_2_">
		<g id="globe-www_1_">
			<path class="st1" d="M416.6,478.8l4-14.3l4,14.3H416.6z M588,399.8h-7.7l1.8,1.9h7.7L588,399.8z M575.2,401.7v-2.8l-11-11
				l-8.2,8.2l-5.5,5.5h21.3H575.2z M615.8,401.7l2.7-2.7H630l-7.3-7.3h-10.9l-10,10h5.1L615.8,401.7L615.8,401.7z M322,401.7h-9.8
				c24-84,101.1-145.5,192.9-145.5c91.7,0,168.8,61.5,192.8,145.5H692c-9.8-33-27.9-62.5-52.2-85.7h-24.5l-1.2,6.1l-5.5,3.6
				l-11.6,1.2l0.6-7.3l-10.4-1.8l1.8-7.3l-15.9,3.7l-8.5,14.6l-14.7,11l-1.1,14l14.6,3.7l8.5,3.7l4.3-4.3v-23.2h5.5v11.6h10.3v12.2
				h-9.7v8.5h-24.4v8.6h-8l-10.9-11v-7.3h-12.8v12.2v6.1l-3.4,3.3l6.4,6.4l8-7.9l6,6.1l-3.4,3.4v4.6h-5.2v11.3h-61.1l-2,8.7
				l-1.9-8.7h-28.7l6.2-6.1l2.8,2.7l6.7-6.7h-10.4v-5.5h7.3v-8.5h7.3v-20.7H444v-3.7h-16.5v29.9l-6.1,1.8l-4.9-11.6l-14.6-10.3
				l-8.5-11.6l14.6,1.8l4.9-7.9l-4.3-4.9l-1.8-6.1l18.3-1.2l2.4-12.8l-61.1-0.6c-19.4,19.5-34.6,43.2-44.4,69.4L322,401.7L322,401.7
				z M484.3,345.3l9.8,9.8l11.6-11.6l22.2-22.3l9.2-9.2h10.7v-22.3v-15.9h-14v-10c-9.3-1.4-18.9-2.2-28.6-2.2
				c-2.3,0-4.5,0.1-6.6,0.2l-0.7,1.6v15.3h-12.2v29.9h1.8h6.7v11.6h-9.8V345.3z M387.8,300.9l5,5h18l7.6-7.6v-10.3h7.9v17.6h12.2
				v36.6h17.7v-50.6h-7.9H433v-10.9h11l6.4-6.4l-3.6-3.6C425.3,277.3,405.4,287.7,387.8,300.9z M673.3,512.8l-4.7,19.3h-30v15h-13.7
				v25.9l-10.7,10.6h-25.1v-23l-13.6-13.5v-33.5l-5.2,18.5h-59.8v21.7h-16.5l-8.6,12.2v27.4l-25,18.3v32.9l-28.1-25.6V552l-28.8-27
				l-2,7.1h-61.1l-4.7-19.3l-4.7,19.3H319c29.8,73.5,101.8,125.5,186,125.5c84.2,0,156.2-51.9,185.9-125.5H678L673.3,512.8z"/>
			<g>
				<path class="st2" d="M413.6,433.6l4.7-16.9h-13.5h-2.7h-17.9l-9.1,38.5c-1,4.1-2,9.5-2.8,16.2c-0.9,6.7-1.5,12.3-1.8,16.8h-0.4
					c-0.1,0-0.1-0.1-0.2-0.1c-0.7-7.3-2.5-17.4-5.2-30.3l-8.7-41H317l-1.5,6.4l-8,34c-3.1,15.2-4.8,25.6-5,31h-0.6
					c-0.4-8.7-2-19.7-4.6-32.9l-8.3-38.5h-34.8l28,100.3h37.2l10.4-42.6c0.8-3.3,2.1-10.1,4-20.5c0.6-3.3,1.2-6.8,1.9-10.8h0.6
					l1.8,11.6l1.1,5.7l1.6,8.8l11.6,47.8h37.8l3.9-14.1l17.4-62.1L413.6,433.6z"/>
				<path class="st2" d="M580.3,440.9l6.8-24.2h-13.6h-0.1H553l-9.1,38.5c-1,4.1-2,9.5-2.8,16.2c-0.8,6.7-1.4,12.3-1.8,16.8h-0.5
					c-0.7-7.3-2.5-17.4-5.2-30.5l-8.7-41h-15.8h-23.4l-9.5,40.5c-2.8,13.8-4.5,23.6-4.9,29.3c0,0.6-0.1,1.2-0.1,1.7h-0.6
					c0-0.4-0.1-0.8-0.1-1.2c-0.5-8.5-2-19.1-4.5-31.7l-8.3-38.5h-21.3h-13.6l6.8,24.2l1.6,5.6l0.5,1.9l17.6,63.1l1.6,5.5h6.2h2.4
					h28.6l10.4-42.6c0.9-3.8,2.6-12.6,5-26.1c0.3-1.7,0.6-3.4,0.9-5.2h0.5l0.8,5.2l1,6.4l2.7,14.4l11.6,47.8H559l19.6-69.9
					L580.3,440.9z"/>
				<path class="st2" d="M721.7,416.7l-9.1,38.5c-1,4.1-2,9.5-2.8,16.2c-0.9,6.7-1.4,12.3-1.8,16.8h-0.5c-0.7-7.3-2.5-17.4-5.2-30.5
					l-8.4-39.7l-0.3-1.3h-39.1l-9.5,40.5c-2.8,13.5-4.4,23.2-4.8,28.9c-0.1,0.7-0.1,1.4-0.1,2h-0.6c0-0.5-0.1-1-0.1-1.5
					c-0.5-8.5-2-18.9-4.5-31.5l-2.6-12.1l-5.7-26.5h-21.3h-13.6l6.7,24.2l8.5,30.6l8.4,30.3l4.3,15.3h37.2l10.4-42.6
					c0.7-2.9,1.8-8.7,3.4-17.1c0.7-4.1,1.6-8.8,2.6-14.2h0.5l1.3,8.5l0.5,3.1l2.7,14.4l11.6,47.8h37.8l28.2-100.3L721.7,416.7
					L721.7,416.7z"/>
			</g>
		</g>
		<g>
			<rect x="608.4" y="725.4" class="st1" width="147.5" height="13.7"/>
			<rect x="254.1" y="725.4" class="st1" width="147.5" height="13.7"/>
			<polygon class="st2" points="492.6,669.5 517.5,669.5 517.5,712.3 597,712.3 597,753.8 413,753.8 413,712.3 492.6,712.3 			"/>
		</g>
	</g>
</g>
<g id="Layer_1_1_">
</g>
</svg>
