<?xml version="1.0" encoding="utf-8"?>
<!-- Generator: Adobe Illustrator 19.2.0, SVG Export Plug-In . SVG Version: 6.00 Build 0)  -->
<svg version="1.1" id="Layer_1" xmlns="http://www.w3.org/2000/svg" xmlns:xlink="http://www.w3.org/1999/xlink" x="0px" y="0px"
	 viewBox="0 0 512 512" style="enable-background:new 0 0 512 512;" xml:space="preserve">
<style type="text/css">
	.st0{fill:#F1CB30;}
	.st1{fill:#DF6246;}
	.st2{fill:#57575C;}
	.st3{fill:#E69629;}
</style>
<path class="st0" d="M256,0C114.8,0,0,114.8,0,256s114.8,256,256,256s256-114.8,256-256S397.2,0,256,0z"/>
<path class="st1" d="M351.4,318.5c-9.1-9.1-23.8-9.1-32.9,0c-12.9,12.9-28.7,20.9-45.3,24.2c-0.1,0-0.2,0-0.3,0.1
	c-1.3,0.3-2.6,0.5-3.9,0.7c-0.1,0-0.2,0-0.3,0c-0.3,0-0.6,0.1-1,0.1c-3.9,0.5-7.8,0.8-11.7,0.8c-6.1,0-12.2-0.7-18.3-1.9
	c-2.2-0.5-4.3-1-6.5-1.6c-0.2,0-0.3-0.1-0.5-0.1c-1.1-0.3-2.1-0.7-3.2-1c-0.3-0.1-0.6-0.2-0.9-0.3c-10.8-3.8-21-9.7-30-17.8
	c-1.1-1-2.2-2.1-3.3-3.1c-9.1-9.1-23.8-9.1-32.9,0c-9.1,9.1-9.1,23.8,0,32.9c26.3,26.3,60.9,39.5,95.4,39.5
	c34.6,0,69.1-13.2,95.4-39.5C360.5,342.4,360.5,327.6,351.4,318.5z"/>
<path class="st1" d="M237.7,342.5c-2.2-0.5-4.3-1-6.5-1.6c-0.2,0-0.3-0.1-0.5-0.1c-1.1-0.3-2.1-0.7-3.2-1c-0.3-0.1-0.6-0.2-0.9-0.3
	c-10.8-3.8-21-9.7-30-17.8c-1.1-1-2.2-2.1-3.3-3.1c-9.1-9.1-23.8-9.1-32.9,0c-9.1,9.1-9.1,23.8,0,32.9
	c26.3,26.3,60.9,39.5,95.4,39.5v-46.5C249.9,344.4,243.8,343.7,237.7,342.5z"/>
<g>
	<path class="st2" d="M355.3,175.3c-8.2,0-16.2,3.3-21.9,9.1c-5.8,5.8-9.1,13.8-9.1,21.9c0,8.2,3.3,16.2,9.1,21.9
		c5.8,5.8,13.8,9.1,21.9,9.1c8.2,0,16.2-3.3,21.9-9.1c5.8-5.8,9.1-13.8,9.1-21.9c0-8.2-3.3-16.2-9.1-21.9
		C371.5,178.6,363.5,175.3,355.3,175.3z"/>
	<path class="st2" d="M178.6,228.3c5.8-5.8,9.1-13.8,9.1-21.9c0-8.2-3.3-16.2-9.1-21.9c-5.8-5.8-13.8-9.1-21.9-9.1
		c-8.2,0-16.2,3.3-21.9,9.1c-5.8,5.8-9.1,13.8-9.1,21.9s3.3,16.2,9.1,21.9c5.8,5.8,13.8,9.1,21.9,9.1
		C164.9,237.4,172.9,234.1,178.6,228.3z"/>
</g>
<g>
	<path class="st0" d="M160.6,351.4c-9.1-9.1-9.1-23.8,0-32.9c9.1-9.1,23.8-9.1,32.9,0c1.1,1.1,2.2,2.1,3.3,3.1
		c8.9,8.1,19.2,14,30,17.8c0.3,0.1,0.6,0.2,0.9,0.3c1.1,0.4,2.1,0.7,3.2,1c0.2,0,0.3,0.1,0.5,0.1c2.1,0.6,4.3,1.1,6.5,1.6
		c6,1.3,12.1,1.9,18.3,1.9V0C114.8,0,0,114.8,0,256s114.8,256,256,256V390.9C221.4,390.9,186.9,377.8,160.6,351.4z M125.7,206.4
		c0-8.2,3.3-16.2,9.1-21.9c5.8-5.8,13.8-9.1,21.9-9.1c8.2,0,16.2,3.3,21.9,9.1c5.8,5.8,9.1,13.8,9.1,21.9s-3.3,16.2-9.1,21.9
		c-5.8,5.8-13.8,9.1-21.9,9.1c-8.2,0-16.2-3.3-21.9-9.1C129,222.5,125.7,214.5,125.7,206.4z"/>
	<path class="st3" d="M226.7,339.4c0.3,0.1,0.6,0.2,0.9,0.3C227.3,339.6,227,339.5,226.7,339.4z"/>
	<path class="st3" d="M237.7,342.5c6,1.3,12.1,1.9,18.3,1.9l0,0C249.9,344.4,243.8,343.7,237.7,342.5z"/>
	<path class="st3" d="M230.8,340.8c0.2,0,0.3,0.1,0.5,0.1C231.1,340.8,231,340.8,230.8,340.8z"/>
</g>
<g>
	<path class="st0" d="M272.9,342.8c0.1,0,0.2,0,0.3-0.1C273.1,342.7,273,342.8,272.9,342.8z"/>
	<path class="st0" d="M267.7,343.6c-3.9,0.5-7.8,0.8-11.7,0.8l0,0C259.9,344.4,263.8,344.1,267.7,343.6z"/>
	<path class="st0" d="M268.7,343.5c0.1,0,0.2,0,0.3,0C268.9,343.5,268.8,343.5,268.7,343.5z"/>
</g>
</svg>
