<?xml version="1.0" encoding="utf-8"?>
<!-- Generator: Adobe Illustrator 19.2.0, SVG Export Plug-In . SVG Version: 6.00 Build 0)  -->
<svg version="1.1" id="Layer_1" xmlns="http://www.w3.org/2000/svg" xmlns:xlink="http://www.w3.org/1999/xlink" x="0px" y="0px"
	 viewBox="0 0 2000 500" style="enable-background:new 0 0 2000 500;" xml:space="preserve">
<style type="text/css">
	.st0{display:none;fill:#29BFE9;}
	.st1{opacity:0.4;}
	
		.st2{opacity:0.75;clip-path:url(#SVGID_2_);fill:none;stroke:#FFFFFF;stroke-width:1.5;stroke-linecap:round;stroke-miterlimit:10;stroke-dasharray:0,5;enable-background:new    ;}
	
		.st3{opacity:0.75;clip-path:url(#SVGID_4_);fill:none;stroke:#FFFFFF;stroke-width:1.5;stroke-linecap:round;stroke-miterlimit:10;stroke-dasharray:0,5;enable-background:new    ;}
	.st4{opacity:0.7;clip-path:url(#SVGID_6_);fill:url(#SVGID_7_);}
	.st5{clip-path:url(#SVGID_9_);fill:url(#SVGID_10_);}
	.st6{opacity:0.5;}
	.st7{clip-path:url(#SVGID_12_);fill:url(#SVGID_13_);}
	.st8{clip-path:url(#SVGID_15_);fill:#FFFFFF;}
	.st9{clip-path:url(#SVGID_17_);fill:#FFFFFF;}
	.st10{clip-path:url(#SVGID_21_);fill:#FFFFFF;}
	.st11{opacity:0.9;}
	.st12{clip-path:url(#SVGID_23_);fill:#FFFFFF;}
	.st13{clip-path:url(#SVGID_27_);fill:#FFFFFF;}
	.st14{clip-path:url(#SVGID_29_);fill:#FFFFFF;}
	.st15{opacity:0.5;clip-path:url(#SVGID_31_);fill:url(#SVGID_32_);}
	.st16{clip-path:url(#SVGID_34_);fill:#FFFFFF;}
	.st17{clip-path:url(#SVGID_36_);fill:#FFFFFF;}
	.st18{clip-path:url(#SVGID_38_);fill:none;stroke:#FFFFFF;stroke-linecap:round;stroke-miterlimit:10;}
	.st19{clip-path:url(#SVGID_40_);fill:#FFFFFF;}
	.st20{clip-path:url(#SVGID_42_);fill:#FFFFFF;}
	.st21{clip-path:url(#SVGID_44_);fill:#FFFFFF;}
</style>
<rect x="-30" y="-13" class="st0" width="2054" height="590"/>
<g class="st1">
	<defs>
		<rect id="SVGID_1_" y="2" class="st1" width="2000" height="500"/>
	</defs>
	<clipPath id="SVGID_2_">
		<use xlink:href="#SVGID_1_"  style="overflow:visible;"/>
	</clipPath>
	<path class="st2" d="M1224.2,422.1c13-16.5,27.6-31.5,48.6-36.9c36.3-9.3,52.3,13.8,83.5,13.8c73.4,0,93.7-128.5,162.9-128.5
		C1569,270.5,1567,143,1636,118c61.3-22.2,63-52,129-116 M899.2,442c21.9,17.7,37.4,39.8,61.4,45.3c43.9,10.1,79.3-30.4,115.6-30.4
		s41.3,22.1,77.6,22.1c32.8,0,49.5-30.3,70.4-56.9"/>
</g>
<g class="st1">
	<defs>
		<rect id="SVGID_3_" x="-44" class="st1" width="2092" height="500"/>
	</defs>
	<clipPath id="SVGID_4_">
		<use xlink:href="#SVGID_3_"  style="overflow:visible;"/>
	</clipPath>
	<path class="st3" d="M581.2,503.4c13-20.8,21.3-46.1,38-46.1c29.1,0,28.2,21.4,63.6,21.4c46.8,0,73.3-62.2,147-62.2
		c33.4,0,46.7,7.9,66.9,23.5"/>
</g>
<g>
	<defs>
		<rect id="SVGID_5_" width="2000" height="500"/>
	</defs>
	<clipPath id="SVGID_6_">
		<use xlink:href="#SVGID_5_"  style="overflow:visible;"/>
	</clipPath>
	
		<linearGradient id="SVGID_7_" gradientUnits="userSpaceOnUse" x1="752.5864" y1="251.1" x2="1.5441" y2="251.1" gradientTransform="matrix(1 0 0 -1 0 502)">
		<stop  offset="0" style="stop-color:#FFFFFF;stop-opacity:0.2"/>
		<stop  offset="1" style="stop-color:#FFFFFF;stop-opacity:0"/>
	</linearGradient>
	<path class="st4" d="M-0.7,499.9l1-500l143.2-1.1C180.2,13.8,209,35.5,239,63c60,55,39,130,127.3,146.4
		c60.5,11.3,65,90.8,114.8,90.8c69.2,0,89.4,112.7,162.9,112.7c31.2,0,34.6-15.5,76.8-15.5c57.4,0,72.6,57,125.7,57
		c36.3,0,41.3-19,77.6-19s54.8,22.5,97.9,22.5c43,0,52.3-28.9,118.1-28.9c86.9,0,120.7,69,165.4,69c33.8,0,32.9-21.1,60.8-21.1
		c27,0,31.2,26.1,73.4,26.1"/>
</g>
<g>
	<defs>
		<rect id="SVGID_8_" x="-20" width="2000" height="500"/>
	</defs>
	<clipPath id="SVGID_9_">
		<use xlink:href="#SVGID_8_"  style="overflow:visible;"/>
	</clipPath>
	
		<linearGradient id="SVGID_10_" gradientUnits="userSpaceOnUse" x1="506.0501" y1="232.1438" x2="-52.6178" y2="232.1438" gradientTransform="matrix(1 0 0 -1 0 502)">
		<stop  offset="0" style="stop-color:#FFFFFF;stop-opacity:0.15"/>
		<stop  offset="1" style="stop-color:#FFFFFF;stop-opacity:0"/>
	</linearGradient>
	<path class="st5" d="M-54.7,499.9L-55,42C30,31,80.7,54.9,141,93c65,41,76,148,171.3,162.4c55.1,8.4,65,90.8,114.8,90.8
		c69.2,0,89.4,100.7,162.9,100.7c31.2,0,34.6-12,76.8-12c57.4,0,72.6,65.5,125.7,65.5"/>
</g>
<g class="st6">
	<defs>
		<rect id="SVGID_11_" x="150" y="-2" class="st6" width="2000" height="503.1"/>
	</defs>
	<clipPath id="SVGID_12_">
		<use xlink:href="#SVGID_11_"  style="overflow:visible;"/>
	</clipPath>
	
		<linearGradient id="SVGID_13_" gradientUnits="userSpaceOnUse" x1="2152.8999" y1="244.4004" x2="1431.2117" y2="244.4004" gradientTransform="matrix(1 0 0 -1 0 502)">
		<stop  offset="0" style="stop-color:#FFFFFF;stop-opacity:0"/>
		<stop  offset="1" style="stop-color:#FFFFFF;stop-opacity:0.3"/>
	</linearGradient>
	<path class="st7" d="M1783.9,211.4c-56.3,0-65,91.4-114.8,91.4c-69.2,0-89.4,113.4-162.9,113.4c-31.2,0-34.6-15.6-76.8-15.6
		c-42.1-2.2-110.7,79.1-204.1,81.1c-128.7,0-127.3-48-215.2-49.3c-86.9,0-120.7,69.4-165.4,69.4c-33.8,0-32.9-21.2-60.8-21.2
		c-27,0-31.3,28.7-73.4,26.3C637,521.2,589,448.8,516.7,458.6C458,471.9,452,517.2,452,517.2l1700.9-13.5l-1.5-504.4L2003.1-2
		c-34.1,11.8-63.5,32.5-88.1,67.1C1891,98.9,1839.7,211.4,1783.9,211.4z"/>
</g>
<g>
	<defs>
		<rect id="SVGID_14_" y="1" width="2000" height="500"/>
	</defs>
	<clipPath id="SVGID_15_">
		<use xlink:href="#SVGID_14_"  style="overflow:visible;"/>
	</clipPath>
	<circle class="st8" cx="837.3" cy="431.7" r="3"/>
</g>
<g>
	<defs>
		<rect id="SVGID_16_" y="1" width="2000" height="500"/>
	</defs>
	<clipPath id="SVGID_17_">
		<use xlink:href="#SVGID_16_"  style="overflow:visible;"/>
	</clipPath>
	<circle class="st9" cx="1285.3" cy="398.7" r="3"/>
</g>
<g>
	<defs>
		<rect id="SVGID_18_" width="2000" height="500"/>
	</defs>
	<clipPath id="SVGID_19_">
		<use xlink:href="#SVGID_18_"  style="overflow:visible;"/>
	</clipPath>
</g>
<g>
	<defs>
		<rect id="SVGID_20_" y="1" width="2000" height="500"/>
	</defs>
	<clipPath id="SVGID_21_">
		<use xlink:href="#SVGID_20_"  style="overflow:visible;"/>
	</clipPath>
	<circle class="st10" cx="1518.3" cy="301" r="3"/>
</g>
<g class="st11">
	<defs>
		<rect id="SVGID_22_" x="-1" y="1" class="st11" width="2000" height="500"/>
	</defs>
	<clipPath id="SVGID_23_">
		<use xlink:href="#SVGID_22_"  style="overflow:visible;"/>
	</clipPath>
	<circle class="st12" cx="814.4" cy="437" r="2.1"/>
</g>
<g>
	<defs>
		<rect id="SVGID_24_" width="2000" height="500"/>
	</defs>
	<clipPath id="SVGID_25_">
		<use xlink:href="#SVGID_24_"  style="overflow:visible;"/>
	</clipPath>
</g>
<g>
	<defs>
		<rect id="SVGID_26_" x="1" width="2000" height="500"/>
	</defs>
	<clipPath id="SVGID_27_">
		<use xlink:href="#SVGID_26_"  style="overflow:visible;"/>
	</clipPath>
	<circle class="st13" cx="1485" cy="311.3" r="2.1"/>
</g>
<g>
	<defs>
		<rect id="SVGID_28_" y="-1" width="2000" height="500"/>
	</defs>
	<clipPath id="SVGID_29_">
		<use xlink:href="#SVGID_28_"  style="overflow:visible;"/>
	</clipPath>
	<circle class="st14" cx="477" cy="299.7" r="3"/>
</g>
<g>
	<defs>
		<rect id="SVGID_30_" x="6" width="2000" height="500"/>
	</defs>
	<clipPath id="SVGID_31_">
		<use xlink:href="#SVGID_30_"  style="overflow:visible;"/>
	</clipPath>
	
		<linearGradient id="SVGID_32_" gradientUnits="userSpaceOnUse" x1="2007.5" y1="255" x2="1467.3223" y2="255" gradientTransform="matrix(1 0 0 -1 0 502)">
		<stop  offset="0" style="stop-color:#FFFFFF;stop-opacity:0"/>
		<stop  offset="1" style="stop-color:#FFFFFF;stop-opacity:0.3"/>
	</linearGradient>
	<path class="st15" d="M2007.5,499.9L2006-24c-31.4,0-105,11-193.7,116c-41.3,39.2-90.3,156-172.4,163.4
		c-56.7,5.1-65,90.8-114.8,90.8c-69.2,0-58.1,87.8-162.9,112.7c-51.9,12.3-83.1,59.1-136.2,59.1"/>
</g>
<g>
	<defs>
		<rect id="SVGID_33_" width="2000" height="500"/>
	</defs>
	<clipPath id="SVGID_34_">
		<use xlink:href="#SVGID_33_"  style="overflow:visible;"/>
	</clipPath>
	<circle class="st16" cx="522.6" cy="316" r="2.1"/>
</g>
<g>
	<defs>
		<rect id="SVGID_35_" width="2000" height="500"/>
	</defs>
	<clipPath id="SVGID_36_">
		<use xlink:href="#SVGID_35_"  style="overflow:visible;"/>
	</clipPath>
	<circle class="st17" cx="717" cy="398" r="3"/>
</g>
<g class="st1">
	<defs>
		<rect id="SVGID_37_" y="1.1" class="st1" width="2000" height="500"/>
	</defs>
	<clipPath id="SVGID_38_">
		<use xlink:href="#SVGID_37_"  style="overflow:visible;"/>
	</clipPath>
	<path class="st18" d="M694.9,499.2c44.7,0,78.5-69,165.4-69c65.8,0,75.1,28.9,118.1,28.9s61.6-22.5,97.9-22.5s41.3,19,77.6,19
		c53.2,0,68.3-57,125.7-57c42.2,0,45.6,15.5,76.8,15.5c73.4,0,93.7-112.7,162.9-112.7c49.8,0,58.6-90.8,114.8-90.8
		c50.4,0,93.3-83.8,125.7-136.8c21.8-35.5,51-59.7,89.4-73.8"/>
</g>
<g>
	<defs>
		<rect id="SVGID_39_" width="2000" height="500"/>
	</defs>
	<clipPath id="SVGID_40_">
		<use xlink:href="#SVGID_39_"  style="overflow:visible;"/>
	</clipPath>
	<circle class="st19" cx="234" cy="59.3" r="3"/>
</g>
<g>
	<defs>
		<rect id="SVGID_41_" x="1" width="2000" height="500"/>
	</defs>
	<clipPath id="SVGID_42_">
		<use xlink:href="#SVGID_41_"  style="overflow:visible;"/>
	</clipPath>
	<circle class="st20" cx="1746.7" cy="96" r="3"/>
</g>
<g>
	<defs>
		<rect id="SVGID_43_" y="1" width="2000" height="500"/>
	</defs>
	<clipPath id="SVGID_44_">
		<use xlink:href="#SVGID_43_"  style="overflow:visible;"/>
	</clipPath>
	<circle class="st21" cx="1817.7" cy="15" r="2.1"/>
</g>
</svg>
