<?xml version="1.0" encoding="utf-8"?>
<!-- Generator: Adobe Illustrator 19.2.0, SVG Export Plug-In . SVG Version: 6.00 Build 0)  -->
<svg version="1.1" id="Layer_1" xmlns="http://www.w3.org/2000/svg" xmlns:xlink="http://www.w3.org/1999/xlink" x="0px" y="0px"
	 viewBox="0 0 1010 1010" style="enable-background:new 0 0 1010 1010;" xml:space="preserve">
<style type="text/css">
	.st0{fill:#29B2FE;}
	.st1{fill:#FFFFFF;}
	.st2{fill:#323232;}
</style>
<g id="rack-server-plus">
	<path id="label_20_" class="st0" d="M505,0c278.9,0,505,226.1,505,505c0,278.9-226.1,505-505,505C226.1,1010,0,783.9,0,505
		C0,226.1,226.1,0,505,0z"/>
	<g id="icon_21_">
		<g>
			<rect x="573.2" y="714" class="st1" width="126.3" height="11.7"/>
			<rect x="270" y="714" class="st1" width="126.3" height="11.7"/>
			<polygon class="st2" points="474.1,666.2 495.4,666.2 495.4,702.8 563.5,702.8 563.5,738.4 406,738.4 406,702.8 474.1,702.8 			
				"/>
		</g>
		<g>
			<path class="st1" d="M320.5,382.1H649c30.5,0,55.2-24.8,55.2-55.3c0-30.5-24.7-55.2-55.2-55.2H320.5c-30.5,0-55.3,24.7-55.3,55.2
				C265.3,357.3,290,382.1,320.5,382.1z M327.7,307.9c10.5,0,18.9,8.5,18.9,18.9c0,10.4-8.5,18.9-18.9,18.9
				c-10.4,0-18.9-8.4-18.9-18.9C308.8,316.4,317.3,307.9,327.7,307.9z"/>
			<path class="st1" d="M544.8,412.5c4.6-2.9,9.4-5.4,14.2-7.7H320.5c-30.5,0-55.3,24.7-55.3,55.2c0,30.5,24.7,55.2,55.3,55.2h156.8
				C483.7,473,507.9,435.6,544.8,412.5z M327.7,478.9c-10.4,0-18.9-8.5-18.9-18.9c0-10.4,8.5-18.9,18.9-18.9
				c10.5,0,18.9,8.5,18.9,18.9C346.7,470.5,338.2,478.9,327.7,478.9z"/>
			<path class="st1" d="M477.7,561.1c-1.4-8.2-2-15.7-2.1-23.1H320.5c-30.5,0-55.3,24.7-55.3,55.2c0,30.5,24.7,55.2,55.3,55.2h206.4
				C501.4,626.4,483.4,595.8,477.7,561.1z M327.7,612.1c-10.4,0-18.9-8.4-18.9-18.9c0-10.4,8.5-18.9,18.9-18.9
				c10.5,0,18.9,8.4,18.9,18.9C346.7,603.6,338.2,612.1,327.7,612.1z"/>
		</g>
		<path class="st2" d="M622.7,415.2c-23.8,0-45.9,6.9-64.6,18.6c-34.1,21.4-56.9,59.1-57.4,102.2c0,0.4-0.1,0.8-0.1,1.2
			c0,6.8,0.7,13.3,1.8,19.8c8.7,53.2,51.6,94.7,105.4,101.2c4.9,0.6,9.8,1,14.9,1c67.4,0,122-54.7,122-122S690.1,415.2,622.7,415.2z
			 M677.4,560.9c0,23.3-18.2,35.6-41.7,38v27.5h-26.5v-28.6c-15.4-2.8-30.3-9.1-41.6-17.9l13.7-27.7c12.6,10.7,33.1,18.8,45.8,18.8
			c7.7,0,12.6-2.6,12.6-8.2c0-18.6-64.2-6.8-64.2-50.1c0-18.9,12.8-32.3,33.7-37V448h26.5v26.5c15.6,1.4,31,6.5,42.1,13.7
			l-13.5,28.1c-12.6-7.2-30.5-13.7-40.9-13.7c-6.1,0-10.2,2.1-10.2,6.7C613.2,527.2,677.4,516.5,677.4,560.9z"/>
	</g>
</g>
<g id="Layer_1_1_">
</g>
</svg>
