<?xml version="1.0" encoding="utf-8"?>
<!-- Generator: Adobe Illustrator 19.2.0, SVG Export Plug-In . SVG Version: 6.00 Build 0)  -->
<svg version="1.1" id="Layer_1" xmlns="http://www.w3.org/2000/svg" xmlns:xlink="http://www.w3.org/1999/xlink" x="0px" y="0px"
	 viewBox="0 0 1381.1 793.9" style="enable-background:new 0 0 1381.1 793.9;" xml:space="preserve">
<style type="text/css">
	.st0{fill:none;stroke:#231F20;stroke-width:3.2;stroke-linejoin:round;stroke-dasharray:9.9219,9.9219;}
	.st1{fill:#FFFFFF;stroke:#231F20;stroke-width:3.2;stroke-linejoin:round;stroke-miterlimit:10;}
	.st2{fill:#48A8DF;}
	.st3{fill:none;stroke:#231F20;stroke-width:3.2;stroke-linejoin:round;stroke-miterlimit:10;}
	.st4{fill:#FFFFFF;}
	.st5{fill:#C4C6C8;}
	.st6{fill:#F1F2F2;stroke:#231F20;stroke-width:3.2;stroke-linejoin:round;stroke-miterlimit:10;}
	.st7{fill:none;stroke:#231F20;stroke-width:3.2;stroke-linejoin:round;}
	.st8{fill:none;stroke:#231F20;stroke-width:3.2;stroke-linejoin:round;stroke-dasharray:6.0714,6.0714;}
	.st9{fill:none;stroke:#231F20;stroke-width:3.2;stroke-linejoin:round;stroke-dasharray:6.6453,6.6453;}
	.st10{fill:#BCBEC0;}
	.st11{fill:#F1F2F2;}
	.st12{fill:#939599;stroke:#231F20;stroke-width:3.2;stroke-linejoin:round;stroke-miterlimit:10;}
	.st13{opacity:0.3;}
	.st14{fill:#E6E7E9;}
	.st15{fill:#D1D3D4;}
	.st16{fill:#BCBEC0;stroke:#231F20;stroke-width:3.2;stroke-linejoin:round;stroke-miterlimit:10;}
	.st17{opacity:0.8;fill:#FFFFFF;}
	.st18{fill:#FFD24B;stroke:#231F20;stroke-width:3.2;stroke-linejoin:round;stroke-miterlimit:10;}
	.st19{fill:#48A8DF;stroke:#231F20;stroke-width:3.2;stroke-linejoin:round;stroke-miterlimit:10;}
	.st20{fill:#A7A9AC;stroke:#231F20;stroke-width:3.2;stroke-linejoin:round;stroke-miterlimit:10;}
	.st21{fill:#FFD24B;}
</style>
<g>
	<g>
		<circle class="st0" cx="1224.6" cy="295.7" r="154.9"/>
	</g>
	<g>
		<rect x="1.6" y="401.6" class="st1" width="320" height="255.5"/>
		<rect x="30" y="430" class="st2" width="260.7" height="196.1"/>
		<polyline class="st3" points="27.1,559.7 137,502.6 244.5,564.6 		"/>
		<polyline class="st3" points="198.5,538.1 238.4,502.6 293.1,538.1 		"/>
		<path class="st4" d="M209.3,468c0,13.8-11.1,24.9-24.9,24.9c-13.8,0-24.9-11.1-24.9-24.9c0-13.7,11.1-24.9,24.9-24.9
			C198.1,443.1,209.3,454.2,209.3,468z"/>
	</g>
	<g>
		<path class="st5" d="M347.4,223.2V205c2.6-1,6.5-2.4,9.6-4.1l12.8,12.9c1.2,1.2,3.1,1.2,4.4,0l18.4-18.4c1.2-1.2,1.2-3.2,0-4.4
			l-12.9-13.6c1.7-3.1,3-5.4,4.1-10.6H402c1.7,0,2.2,0.1,2.2-1.6v-26.1c0-1.7-0.5-3.3-2.2-3.3h-18.2c-1-5.2-2.4-6.7-4.1-9.8
			l12.9-12.8c1.2-1.2,1.2-3.2,0-4.4l-18.4-18.4c-1.2-1.2-3.2-1.2-4.4,0l-12.6,12.9c-3.1-1.7-7-3-9.6-4.1V80.9c0-1.7-1.8-4.5-3.6-4.5
			h-26.1c-1.7,0-3.9,2.8-3.9,4.5v18.2c-2.6,1.1-6.3,2.4-9.4,4.1l-12.7-12.9c-1.2-1.2-3.1-1.2-4.3,0L269,108.8
			c-1.2,1.2-1.2,3.2,0,4.4L282,126c-1.7,3.1-3,4.6-4.1,9.8h-18.2c-1.7,0-5.2,1.5-5.2,3.3v26.1c0,1.7,3.4,1.6,5.2,1.6h18.2
			c1,5.2,2.4,7.5,4.1,10.6l-12.9,13.2c-1.2,1.2-1.2,3.4,0,4.6l18.4,18.5c1.2,1.2,3.2,1.3,4.4,0l12.5-12.8c3.1,1.7,6.9,3.1,9.4,4.1
			v18.2c0,1.7,2.2,2.9,3.9,2.9h26.1C345.6,226.1,347.4,225,347.4,223.2z"/>
		<path class="st6" d="M330.2,176.3c-12.9,0-23.4-10.5-23.4-23.4c0-12.9,10.5-23.4,23.4-23.4c12.9,0,23.4,10.5,23.4,23.4
			C353.5,165.9,343.1,176.3,330.2,176.3z"/>
	</g>
	<g>
		<path class="st5" d="M1253.3,420.5v-31.6c5.2-1.8,10.8-4.2,16.2-7.1l21.9,22.3c2.1,2.1,5.3,2.1,7.4,0l31.9-32
			c2.1-2.1,2.1-5.6-0.1-7.7l-22.4-21.5c2.9-5.4,5.2-13.7,7.1-16.3h31.6c3,0,4.4-4.1,4.4-7.1v-45.2c0-3-1.4-4.4-4.4-4.4h-31.6
			c-1.8-10.3-4.2-12.2-7.1-17.6l22.3-22.6c2.1-2.1,2.1-5.7,0-7.8l-32-32.1c-2.1-2.1-5.5-2.2-7.7,0l-21.5,22.3
			c-5.4-2.9-11.1-5.3-16.2-7.1v-31.6c0-3-4.2-6.8-7.2-6.8h-45.3c-3,0-6.9,3.8-6.9,6.8v31.6c-2.6,1.8-10.9,4.2-16.3,7.1l-22-22.3
			c-2.1-2.1-5.4-2.1-7.5,0l-31.9,32c-2.1,2.1-2.1,5.5,0,7.7l22.4,22.8c-2.9,5.4-5.3,7.3-7.1,17.6H1100c-3,0-6.7,1.4-6.7,4.4v45.2
			c0,3,3.7,7.1,6.7,7.1h31.6c1.8,2.6,4.2,10.8,7.1,16.3l-22.4,21.9c-2.1,2.1-2.1,5.3,0,7.4l32,31.9c2.1,2.1,5.6,2.1,7.7-0.1
			l21.6-22.4c5.4,2.9,13.8,5.2,16.3,7.1v31.6c0,3,3.9,6.9,6.9,6.9h45.3C1249.1,427.4,1253.3,423.5,1253.3,420.5z"/>
		<path class="st6" d="M1222.3,339.1c-22.4,0-40.6-18.2-40.6-40.6c0-22.4,18.2-40.6,40.6-40.6c22.4,0,40.6,18.2,40.6,40.6
			C1262.9,320.9,1244.7,339.1,1222.3,339.1z"/>
	</g>
	<g>
		<g>
			<g>
				<path class="st7" d="M848.3,185.6c0.9-2.9,2-5.7,3.2-8.5"/>
				<path class="st8" d="M858.9,163.4c4.3-6.6,9.4-12.6,15.2-17.9"/>
				<path class="st7" d="M880,140.5c2.4-1.8,4.9-3.6,7.4-5.1"/>
			</g>
		</g>
	</g>
	<g>
		<g>
			<g>
				<path class="st7" d="M984.3,135c2.6,1.6,5.1,3.3,7.4,5.1"/>
				<path class="st9" d="M1004.4,151.7c14.8,16.3,23.8,38,23.8,61.8c0,9.1-1.3,18-3.8,26.3"/>
				<path class="st7" d="M1021.5,247.9c-1.1,2.8-2.4,5.5-3.8,8.2"/>
			</g>
		</g>
	</g>
	<g>
		<rect x="517.8" y="657.1" class="st10" width="147.1" height="98.1"/>
		<g>
			<path class="st11" d="M930.7,236.5c0-20.4-15.2-38.8-36.5-38.8H286.4c-21.3,0-39.6,18.4-39.6,38.8V541h683.9V236.5z"/>
			<path class="st6" d="M246.8,541v81.4c0,20.4,18.3,34.7,39.6,34.7h607.8c21.3,0,36.5-14.3,36.5-34.7V541H246.8z"/>
		</g>
		<path class="st10" d="M614.2,599.4c0,13.2-10.7,23.8-23.8,23.8c-13.2,0-23.8-10.7-23.8-23.8c0-13.2,10.7-23.8,23.8-23.8
			C603.5,575.5,614.2,586.2,614.2,599.4z"/>
		<rect x="489.4" y="755.2" class="st6" width="198.7" height="25.8"/>
		<rect x="290.6" y="239" class="st12" width="598.7" height="301.9"/>
		<g class="st13">
			<rect x="331.9" y="277.7" class="st11" width="518.7" height="80"/>
			<rect x="331.9" y="378.4" class="st11" width="343.2" height="64.5"/>
			<rect x="708.7" y="378.4" class="st11" width="139.4" height="64.5"/>
			<rect x="331.9" y="466.1" class="st11" width="516.2" height="36.1"/>
		</g>
	</g>
	<rect x="894.5" y="347.4" class="st14" width="36.1" height="15.5"/>
	<rect x="246.8" y="512.6" class="st14" width="38.7" height="12.9"/>
	<g>
		<g>
			<path class="st15" d="M171.9,780.3c0,7.1,5.3,13.6,12,13.6h174c6.7,0,12.8-6.6,12.8-13.6V750H171.9V780.3z"/>
			<path class="st15" d="M370.6,538.4c0-7.1-6.1-12.9-12.8-12.9h-174c-6.7,0-12,5.9-12,12.9v30.9h198.7V538.4z"/>
			<rect x="171.9" y="569.4" class="st16" width="198.7" height="180.7"/>
		</g>
		<line class="st6" x1="244.2" y1="548.7" x2="272.6" y2="548.7"/>
		<line class="st6" x1="285.5" y1="548.7" x2="298.4" y2="548.7"/>
		<rect x="195.2" y="592.6" class="st17" width="149.7" height="74.8"/>
		<rect x="195.2" y="685.5" class="st17" width="149.7" height="43.9"/>
		<line class="st6" x1="215.8" y1="618.4" x2="244.2" y2="618.4"/>
		<line class="st6" x1="215.8" y1="706.1" x2="251.9" y2="706.1"/>
		<line class="st6" x1="288.1" y1="706.1" x2="326.8" y2="706.1"/>
		<line class="st6" x1="215.8" y1="639" x2="326.8" y2="639"/>
	</g>
	<g>
		<path class="st15" d="M579.5,184.8h23.6c0-43.9,42.9-72.2,42.9-72.2l-66.5-77.6L513,112.8c0,0,42.9,28.1,42.9,72H579.5z"/>
		<g>
			<rect x="528.1" y="486.8" class="st18" width="98.1" height="54.2"/>
			<polygon class="st19" points="626.1,208.1 618.4,208.1 618.4,184.8 535.8,184.8 535.8,208.1 528.1,208.1 528.1,463.6 
				626.1,463.6 			"/>
			<rect x="528.1" y="463.6" class="st20" width="98.1" height="23.2"/>
		</g>
		<line class="st3" x1="533.2" y1="208.1" x2="590" y2="208.1"/>
		<line class="st3" x1="579.7" y1="35.1" x2="579.7" y2="104.8"/>
		<circle class="st12" cx="579.8" cy="121.3" r="15"/>
	</g>
	<g>
		<g>
			<rect x="662.3" y="115.2" class="st21" width="82.6" height="420.7"/>
			<line class="st3" x1="708.7" y1="146.1" x2="664.9" y2="146.1"/>
			<line class="st3" x1="698.4" y1="177.1" x2="664.9" y2="177.1"/>
			<line class="st3" x1="708.7" y1="213.2" x2="664.9" y2="213.2"/>
			<line class="st3" x1="698.4" y1="251.9" x2="664.9" y2="251.9"/>
			<line class="st3" x1="708.7" y1="285.5" x2="664.9" y2="285.5"/>
			<line class="st3" x1="698.4" y1="326.8" x2="664.9" y2="326.8"/>
			<line class="st3" x1="708.7" y1="362.9" x2="664.9" y2="362.9"/>
			<line class="st3" x1="698.4" y1="399" x2="664.9" y2="399"/>
			<line class="st3" x1="708.7" y1="435.2" x2="664.9" y2="435.2"/>
			<line class="st3" x1="698.4" y1="468.7" x2="664.9" y2="468.7"/>
			<line class="st3" x1="708.7" y1="510" x2="664.9" y2="510"/>
		</g>
		<line class="st3" x1="662.3" y1="115.2" x2="662.3" y2="535.8"/>
	</g>
	<g>
		<g>
			<rect x="450.7" y="479" class="st15" width="51.6" height="12.9"/>
			<rect x="450.7" y="205.5" class="st2" width="51.6" height="273.6"/>
			<rect x="453.2" y="491.9" class="st12" width="46.5" height="49"/>
		</g>
		<polygon class="st6" points="477.6,155.6 453.7,205.5 501.4,205.5 		"/>
		<line class="st3" x1="473.9" y1="205.5" x2="473.9" y2="458.4"/>
	</g>
	<g>
		<path class="st15" d="M1222.3,387.4c0-13.7-10.4-24.5-24.1-24.5H713.9c-13.7,0-25.8,10.8-25.8,24.5v354.9h534.2V387.4z"/>
		<path class="st6" d="M649.4,742.3v24.6c0,13.7,12.1,24.5,27.9,24.5h557.6c15.8,0,28.7-10.8,28.7-24.5v-24.6H649.4z"/>
		<rect x="726.8" y="393.9" class="st18" width="459.4" height="309.7"/>
		<line class="st3" x1="925.5" y1="768.1" x2="984.9" y2="768.1"/>
		<g class="st13">
			<rect x="757.8" y="422.3" class="st4" width="402.6" height="82.6"/>
			<rect x="757.8" y="530.7" class="st4" width="265.8" height="72.3"/>
			<rect x="1049.4" y="530.7" class="st4" width="108.4" height="72.3"/>
			<rect x="757.8" y="626.1" class="st4" width="400" height="41.3"/>
		</g>
	</g>
	<g>
		<rect x="951.3" y="272.6" class="st1" width="203.9" height="160"/>
		<rect x="974.5" y="288.1" class="st2" width="160" height="123.9"/>
		<polyline class="st3" points="967.4,371.4 1036.5,335.5 1104.1,374.5 		"/>
		<polyline class="st3" points="1075.2,357.8 1100.3,335.5 1134.7,357.8 		"/>
		<circle class="st4" cx="1066.3" cy="313.8" r="15.7"/>
	</g>
	<line class="st3" x1="781" y1="646.8" x2="809.4" y2="646.8"/>
	<line class="st3" x1="848.1" y1="646.8" x2="871.3" y2="646.8"/>
	<line class="st3" x1="910" y1="646.8" x2="938.4" y2="646.8"/>
	<line class="st3" x1="974.5" y1="646.8" x2="1002.9" y2="646.8"/>
	<line class="st3" x1="910" y1="486.8" x2="922.9" y2="486.8"/>
	<line class="st3" x1="943.6" y1="486.8" x2="959.1" y2="486.8"/>
	<line class="st3" x1="979.7" y1="486.8" x2="992.6" y2="486.8"/>
	<line class="st3" x1="1039.1" y1="646.8" x2="1064.9" y2="646.8"/>
	<line class="st3" x1="1101" y1="646.8" x2="1129.4" y2="646.8"/>
	<polyline class="st3" points="757.8,530.7 757.8,602.9 1023.6,602.9 	"/>
	<g>
		<line class="st3" x1="1155.2" y1="592.6" x2="1090.7" y2="592.6"/>
		<line class="st3" x1="1075.2" y1="592.6" x2="1052" y2="592.6"/>
		<line class="st3" x1="1155.2" y1="569.4" x2="1090.7" y2="569.4"/>
		<line class="st3" x1="1075.2" y1="569.4" x2="1052" y2="569.4"/>
		<line class="st3" x1="1155.2" y1="535.8" x2="1090.7" y2="535.8"/>
		<line class="st3" x1="1075.2" y1="535.8" x2="1052" y2="535.8"/>
	</g>
	<g>
		<polygon class="st21" points="381,270 161.6,270 161.6,411.9 277.7,411.9 277.7,466.6 331.3,411.9 381,411.9 		"/>
		<polyline class="st3" points="229.9,313.7 205.2,338.4 230.6,363.7 		"/>
		<polyline class="st3" points="314.9,365 340.8,339.1 314.9,313.2 		"/>
		<line class="st3" x1="254.6" y1="383.8" x2="294.7" y2="293.7"/>
	</g>
	<g>
		<path class="st21" d="M870.6,217.8c0,36.5,29.7,66.1,66.2,66.1c36.5,0,66.6-29.6,66.6-66.1c0-29.1-18.5-53.7-44.4-62.6v-42.6
			h-43.9v42.6C889.4,164.1,870.6,188.7,870.6,217.8z"/>
		<rect x="915.2" y="84.2" class="st16" width="43.9" height="28.4"/>
		<line class="st3" x1="938.4" y1="112.6" x2="938.4" y2="221"/>
		<line class="st3" x1="948.7" y1="221" x2="920.3" y2="221"/>
		<path class="st3" d="M966.5,251.6c0,0,22.4-15.6,13.9-45.5"/>
		<line class="st3" x1="959.1" y1="66.1" x2="915.2" y2="66.1"/>
		<line class="st3" x1="959.1" y1="50.6" x2="915.2" y2="50.6"/>
		<line class="st3" x1="912.6" y1="1.6" x2="969.4" y2="1.6"/>
		<line class="st3" x1="938.4" y1="50.6" x2="938.4" y2="1.6"/>
	</g>
	<line class="st3" x1="239" y1="195.2" x2="151.3" y2="195.2"/>
	<line class="st3" x1="228.7" y1="151.3" x2="107.4" y2="151.3"/>
	<line class="st3" x1="233.9" y1="102.2" x2="184.8" y2="102.2"/>
	<g>
		<polygon class="st14" points="1299.7,499.7 1113.9,499.7 1113.9,626.1 1209.4,626.1 1209.4,672.4 1257.1,626.1 1299.7,626.1 		"/>
		<line class="st3" x1="1137.1" y1="525.5" x2="1173.3" y2="525.5"/>
		<line class="st3" x1="1137.1" y1="553.9" x2="1279.1" y2="553.9"/>
		<line class="st3" x1="1137.1" y1="582.3" x2="1279.1" y2="582.3"/>
		<line class="st3" x1="1137.1" y1="605.5" x2="1168.1" y2="605.5"/>
		<line class="st3" x1="1188.7" y1="605.5" x2="1227.5" y2="605.5"/>
		<line class="st3" x1="1240.4" y1="605.5" x2="1279.1" y2="605.5"/>
		<line class="st3" x1="1191.3" y1="525.5" x2="1279.1" y2="525.5"/>
	</g>
	<g>
		<polygon class="st14" points="58.4,334.5 184.8,334.5 184.8,251.9 117.7,251.9 117.7,221.4 87.2,251.9 58.4,251.9 		"/>
		<line class="st3" x1="73.9" y1="290.6" x2="94.5" y2="290.6"/>
		<line class="st3" x1="112.6" y1="290.6" x2="130.6" y2="290.6"/>
		<line class="st3" x1="148.7" y1="290.6" x2="166.8" y2="290.6"/>
	</g>
	<line class="st3" x1="1015.8" y1="91.9" x2="1052" y2="91.9"/>
	<line class="st3" x1="1062.3" y1="91.9" x2="1075.2" y2="91.9"/>
	<line class="st3" x1="858.4" y1="35.1" x2="812" y2="35.1"/>
	<line class="st3" x1="796.5" y1="35.1" x2="781" y2="35.1"/>
	<line class="st3" x1="1062.3" y1="37.7" x2="1018.4" y2="37.7"/>
	<line class="st3" x1="1002.9" y1="37.7" x2="987.4" y2="37.7"/>
	<line class="st3" x1="817.1" y1="89.3" x2="853.2" y2="89.3"/>
	<line class="st3" x1="863.6" y1="89.3" x2="876.5" y2="89.3"/>
</g>
</svg>
