<?xml version="1.0" encoding="utf-8"?>
<!-- Generator: Adobe Illustrator 19.2.0, SVG Export Plug-In . SVG Version: 6.00 Build 0)  -->
<svg version="1.1" id="Capa_1" xmlns="http://www.w3.org/2000/svg" xmlns:xlink="http://www.w3.org/1999/xlink" x="0px" y="0px"
	 viewBox="0 0 474.6 474.6" style="enable-background:new 0 0 474.6 474.6;" xml:space="preserve">
<style type="text/css">
	.st0{fill:#323232;}
</style>
<g>
	<g>
		<g>
			<path class="st0" d="M0,2v470.5h474.6V2H0z M435.5,433.5c-34,0-362.3,0-396.4,0c0-34,0-358.4,0-392.3c34,0,362.3,0,396.4,0
				C435.5,75.1,435.5,399.5,435.5,433.5z"/>
			<path class="st0" d="M124.9,273.6c1.3,4.5,2,14.4,2,29.6c0,13,0.7,22.6,2.1,28.6c1.4,6,4.1,11.2,8.2,15.3c4.1,4.1,9.1,7.1,15,8.9
				c6,1.8,14.5,2.7,25.6,2.7h6.6V329c-8.9,0-14.6-0.6-17.3-1.7c-2.7-1.1-4.6-2.7-6-4.9c-1.3-2.2-1.9-5.9-1.9-11.3
				c0-3.8-0.3-12.6-1-26.3c-0.5-9-1.6-16.1-3.2-21.5c-1.6-5.4-4-9.9-7.1-13.7c-3.1-3.8-7.1-7-11.9-9.8c5.5-3.6,9.6-7,12.3-10.3
				c2.7-3.3,4.9-7.4,6.6-12.5c1.7-5.1,2.8-11.7,3.2-19.8c0.7-14.5,1.1-24.3,1.1-29.5c0-5.1,0.6-8.7,1.9-10.8
				c1.3-2.1,3.1-3.6,5.7-4.7c2.6-1,8.5-1.5,17.6-1.5v-29.5h-6.6c-10.8,0-18.7,0.8-23.7,2.2c-7.4,2.2-13.1,5.2-17,9.1
				c-3.9,3.8-6.6,8.9-8,15.2c-1.5,6.3-2.2,17.4-2.2,33.3c0,9.9-0.4,16.7-1,20.6c-0.8,5.3-2.4,9.6-4.6,13.2c-2.2,3.5-4.8,6-7.9,7.5
				c-3,1.4-7.5,2.4-13.6,2.7v29.7c7.6,0.4,13.2,2,16.9,4.9C120.4,262.3,123.1,267,124.9,273.6z"/>
			<path class="st0" d="M212.1,331.4l6.7,14.4c7.4-2.7,13.6-6.3,18.4-10.9s8.1-9.8,9.8-15.6c1.7-5.8,2.6-13.8,2.6-23.8v-24.8h-34.8
				v34.7h16.8c-0.1,6.8-1.7,12.3-4.7,16.5C224,325.9,219.1,329.1,212.1,331.4z"/>
			<rect x="214.9" y="174" class="st0" width="34.8" height="34.8"/>
			<path class="st0" d="M311.2,356.3c7.5-2.2,13.2-5.2,17.1-9.1c3.9-3.8,6.5-8.9,7.9-15.3c1.4-6.4,2.2-17.5,2.2-33.5
				c0-9.8,0.4-16.6,1-20.6c0.9-5.3,2.4-9.6,4.7-13.1c2.2-3.5,4.8-6,7.8-7.5c3-1.5,7.5-2.4,13.6-2.7h0V225
				c-7.6-0.5-13.2-2.1-16.9-4.9c-3.7-2.8-6.4-7.6-8.3-14.1c-1.3-4.6-1.9-14.5-1.9-29.5c0-13-0.7-22.5-2.2-28.6
				c-1.4-6.1-4.2-11.2-8.2-15.4c-4.1-4.1-9-7.1-15-8.8c-6-1.7-14.5-2.6-25.6-2.6h-6.6v29.5c9.3,0,15.3,0.6,18,1.7
				c2.7,1.1,4.6,2.7,5.6,4.7c1.1,2,1.6,6.2,1.6,12.4c0.5,19.6,1.2,32.3,2.1,38.1c1.4,8.4,4.1,15.3,7.9,20.7
				c2.8,3.8,7.2,7.7,13.4,11.6c-4.7,2.7-8.5,5.8-11.5,9.4c-3,3.6-5.4,8-7.2,13.1c-1.8,5.2-3,12.1-3.3,20.6
				c-0.7,14.2-1.1,23.8-1.1,28.8c-0.1,5-0.7,8.6-2,10.7c-1.3,2.1-3.3,3.7-6,4.9c-2.7,1.1-8.5,1.6-17.4,1.6v29.7h6.6
				C298.2,358.6,306.2,357.8,311.2,356.3z"/>
		</g>
	</g>
</g>
</svg>
