<?xml version="1.0" encoding="utf-8"?>
<!-- Generator: Adobe Illustrator 19.2.0, SVG Export Plug-In . SVG Version: 6.00 Build 0)  -->
<svg version="1.1" id="Layer_1" xmlns="http://www.w3.org/2000/svg" xmlns:xlink="http://www.w3.org/1999/xlink" x="0px" y="0px"
	 viewBox="0 0 1392.2 644.5" style="enable-background:new 0 0 1392.2 644.5;" xml:space="preserve">
<style type="text/css">
	.st0{fill:none;stroke:#231F20;stroke-width:3.2;stroke-linejoin:round;stroke-miterlimit:10;stroke-dasharray:7;}
	.st1{fill:none;stroke:#231F20;stroke-width:3.2;stroke-linejoin:round;}
	.st2{fill:none;stroke:#231F20;stroke-width:3.2;stroke-linejoin:round;stroke-dasharray:7.1162,7.1162;}
	.st3{fill:#BCBEC0;}
	.st4{fill:none;stroke:#231F20;stroke-width:3.2;stroke-linejoin:round;stroke-miterlimit:10;}
	.st5{fill:#F1F2F2;stroke:#231F20;stroke-width:3.2;stroke-linejoin:round;stroke-miterlimit:10;}
	.st6{fill:#D1D3D4;stroke:#231F20;stroke-width:3.2;stroke-linejoin:round;stroke-miterlimit:10;}
	.st7{fill:#FFFFFF;}
	.st8{fill:#A7A9AC;}
	.st9{fill:#3F99D5;}
	.st10{fill:#F6A238;}
	.st11{fill:#D1D3D4;}
	.st12{fill:#F6A238;stroke:#231F20;stroke-width:3.2;stroke-linejoin:round;stroke-miterlimit:10;}
	.st13{opacity:0.5;}
	.st14{fill:#F39238;}
	.st15{fill:#48A8DF;stroke:#231F20;stroke-width:3.2;stroke-linejoin:round;stroke-miterlimit:10;}
	.st16{opacity:0.2;fill:#FFFFFF;}
	.st17{fill:#48A8DF;}
	.st18{fill:#FFFFFF;stroke:#231F20;stroke-width:3.2;stroke-linejoin:round;stroke-miterlimit:10;}
</style>
<g>
	<line class="st0" x1="966.4" y1="183.5" x2="966.4" y2="350.5"/>
	<line class="st0" x1="289.8" y1="237.8" x2="289.8" y2="486.3"/>
	<g>
		<g>
			<line class="st1" x1="381.7" y1="137.5" x2="389.2" y2="137.5"/>
			<line class="st2" x1="404.5" y1="137.5" x2="917.8" y2="137.5"/>
			<line class="st1" x1="925.4" y1="137.5" x2="933" y2="137.5"/>
		</g>
	</g>
	<g>
		<g>
			<rect x="1319.3" y="344.3" class="st3" width="45.9" height="41.8"/>
			<line class="st4" x1="1300.5" y1="377.7" x2="1231.6" y2="377.7"/>
			<line class="st4" x1="1300.5" y1="352.6" x2="1204.5" y2="352.6"/>
		</g>
		<line class="st4" x1="1364.3" y1="386" x2="1319.2" y2="343.2"/>
	</g>
	<g>
		<rect x="1054.1" y="402.7" class="st5" width="304.9" height="79.4"/>
		<rect x="1054.1" y="482.1" class="st6" width="304.9" height="79.4"/>
		<rect x="1054.1" y="561.5" class="st5" width="304.9" height="79.4"/>
		<circle class="st7" cx="1300.5" cy="519.7" r="17.8"/>
		<circle class="st7" cx="1244.1" cy="519.7" r="17.8"/>
		<line class="st4" x1="1097.9" y1="588.6" x2="1317.2" y2="588.6"/>
		<line class="st4" x1="1097.9" y1="609.5" x2="1317.2" y2="609.5"/>
		<line class="st4" x1="1097.9" y1="507.2" x2="1097.9" y2="532.2"/>
		<line class="st4" x1="1118.8" y1="507.2" x2="1118.8" y2="532.2"/>
		<line class="st4" x1="1139.7" y1="507.2" x2="1139.7" y2="532.2"/>
		<line class="st4" x1="1160.6" y1="507.2" x2="1160.6" y2="532.2"/>
		<line class="st4" x1="1181.5" y1="507.2" x2="1181.5" y2="532.2"/>
		<line class="st4" x1="1237.9" y1="519.7" x2="1250.4" y2="519.7"/>
		<line class="st4" x1="1294.3" y1="519.7" x2="1306.8" y2="519.7"/>
		<rect x="1306.8" y="427.8" class="st8" width="8.4" height="27.1"/>
		<rect x="1285.9" y="427.8" class="st9" width="8.4" height="27.1"/>
		<rect x="1265" y="427.8" class="st10" width="8.4" height="27.1"/>
		<rect x="1244.1" y="427.8" class="st9" width="8.4" height="27.1"/>
		<rect x="1223.2" y="427.8" class="st10" width="8.4" height="27.1"/>
		<line class="st4" x1="1083.3" y1="429.9" x2="1206.5" y2="429.9"/>
		<line class="st4" x1="1083.3" y1="450.8" x2="1206.5" y2="450.8"/>
	</g>
	<g>
		<polygon class="st4" points="1097.9,237.8 1097.9,170.9 1070.8,170.9 1070.8,237.8 1022.8,237.8 1022.8,262.8 1146,262.8 
			1146,237.8 		"/>
		<line class="st4" x1="1070.8" y1="237.8" x2="1083.3" y2="237.8"/>
		<line class="st4" x1="1146" y1="250.3" x2="1175.2" y2="250.3"/>
		<line class="st4" x1="993.5" y1="250.3" x2="1022.8" y2="250.3"/>
	</g>
	<g>
		<path class="st7" d="M880.5,113c19.6,0,37.8,5.9,52.8,16.3c10.2-11.6,24.2-19.8,40.1-22.4c-0.7-4.5-1-9-1-13.7
			c0-51.4,41.7-93.2,93.1-93.2c51.4,0,93.2,41.7,93.2,93.1c0,7.6-0.9,14.9-2.6,22c6.9-1.6,14.1-2.2,21.5-2.2
			c51.4,0,93.1,41.3,93.1,93.5H787.3C787.3,154.2,829,113,880.5,113z"/>
		<path class="st6" d="M1269.2,205.8"/>
		<path class="st6" d="M1156.1,115.1c0,0-11.4,9.1-15.1,11.1"/>
		<path class="st6" d="M933.3,129.1c0,0,5.1,8.8,5.4,15.6"/>
	</g>
	<g>
		<path class="st7" d="M491.5,184.6c-17.8,0-34.2,5.4-47.8,14.8c-9.2-10.5-21.9-17.9-36.3-20.3c0.6-4,0.9-8.2,0.9-12.4
			c0-46.6-37.8-84.3-84.3-84.3c-46.6,0-84.3,37.7-84.3,84.3c0,6.9,0.8,13.5,2.4,19.9c-6.2-1.5-12.7-2.1-19.4-2.1
			c-46.6,0-84.3,36.5-84.3,84.5h437.6C575.9,221.1,538.1,184.6,491.5,184.6z"/>
		<path class="st6" d="M139.6,268.7"/>
		<path class="st6" d="M242,186.6c0,0,10.3,8.3,13.7,10"/>
		<path class="st6" d="M443.7,199.2c0,0-4.7,8-4.9,14.1"/>
	</g>
	<g>
		<rect x="598.8" y="532.2" class="st11" width="119" height="79.4"/>
		<g>
			<path class="st11" d="M933,191.9c0-16.5-12.3-31.4-29.5-31.4H411.6c-17.2,0-32.1,14.9-32.1,31.4v246.3H933V191.9z"/>
			<path class="st5" d="M379.6,438.2v65.9c0,16.5,14.8,28.1,32.1,28.1h491.8c17.2,0,29.5-11.6,29.5-28.1v-65.9H379.6z"/>
		</g>
		<path class="st3" d="M676.9,485.5c0,10.7-8.6,19.3-19.3,19.3c-10.7,0-19.3-8.6-19.3-19.3c0-10.7,8.6-19.3,19.3-19.3
			C668.2,466.2,676.9,474.8,676.9,485.5z"/>
		<rect x="575.9" y="611.6" class="st5" width="160.8" height="20.9"/>
		<rect x="415.1" y="193.9" class="st12" width="484.5" height="244.3"/>
		<g class="st13">
			<rect x="448.5" y="225.2" class="st14" width="419.8" height="64.7"/>
			<rect x="630.2" y="306.7" class="st14" width="96.1" height="52.2"/>
			<rect x="450.6" y="306.7" class="st14" width="154.5" height="52.2"/>
			<rect x="753.4" y="306.7" class="st14" width="112.8" height="52.2"/>
			<rect x="448.5" y="375.6" class="st14" width="417.7" height="37.8"/>
		</g>
	</g>
	<g>
		<path class="st11" d="M1169,314c0-11.1-8.4-19.8-19.5-19.8H757.6c-11.1,0-20.9,8.7-20.9,19.8v287.1H1169V314z"/>
		<path class="st5" d="M705.3,601.1V621c0,11.1,9.8,19.8,22.6,19.8h451.2c12.8,0,23.3-8.7,23.3-19.8v-19.9H705.3z"/>
		<rect x="768" y="319.2" class="st15" width="371.7" height="250.6"/>
		<line class="st4" x1="928.8" y1="622" x2="976.8" y2="622"/>
		<rect x="1077.1" y="342.2" class="st16" width="41.8" height="66.8"/>
		<rect x="793.1" y="342.2" class="st16" width="271.5" height="66.8"/>
		<rect x="793.1" y="429.9" class="st16" width="73.1" height="58.5"/>
		<rect x="880.8" y="429.9" class="st16" width="236" height="58.5"/>
		<rect x="793.1" y="507.2" class="st16" width="323.7" height="33.4"/>
	</g>
	<g>
		<rect x="214.6" y="404.8" class="st5" width="304.9" height="79.4"/>
		<rect x="214.6" y="484.2" class="st6" width="304.9" height="79.4"/>
		<rect x="214.6" y="563.5" class="st5" width="304.9" height="79.4"/>
		<circle class="st7" cx="461" cy="521.8" r="17.8"/>
		<circle class="st7" cx="404.6" cy="521.8" r="17.8"/>
		<line class="st4" x1="258.4" y1="590.7" x2="477.7" y2="590.7"/>
		<line class="st4" x1="258.4" y1="611.6" x2="477.7" y2="611.6"/>
		<line class="st4" x1="258.4" y1="509.3" x2="258.4" y2="534.3"/>
		<line class="st4" x1="279.3" y1="509.3" x2="279.3" y2="534.3"/>
		<line class="st4" x1="300.2" y1="509.3" x2="300.2" y2="534.3"/>
		<line class="st4" x1="321.1" y1="509.3" x2="321.1" y2="534.3"/>
		<line class="st4" x1="342" y1="509.3" x2="342" y2="534.3"/>
		<line class="st4" x1="398.4" y1="521.8" x2="410.9" y2="521.8"/>
		<line class="st4" x1="454.7" y1="521.8" x2="467.3" y2="521.8"/>
		<rect x="467.3" y="429.9" class="st8" width="8.4" height="27.1"/>
		<rect x="446.4" y="429.9" class="st9" width="8.4" height="27.1"/>
		<rect x="425.5" y="429.9" class="st10" width="8.4" height="27.1"/>
		<rect x="404.6" y="429.9" class="st9" width="8.4" height="27.1"/>
		<rect x="383.7" y="429.9" class="st10" width="8.4" height="27.1"/>
		<line class="st4" x1="243.8" y1="432" x2="367" y2="432"/>
		<line class="st4" x1="243.8" y1="452.9" x2="367" y2="452.9"/>
	</g>
	<g>
		<path class="st10" d="M141.6,540c-22.3,0-40.3,18-40.3,40.3c0,12.1,5.4,23,13.9,30.4c4.7-4.7,12.3-8.2,15.9-9.8
			c3.4-1.5,4.4-4.1,4.7-5.9c-4-2.8-6.8-7.5-6.8-11.1v-17c0,0-1.6-14.1,12.5-14.1c14.1,0,12.5,14.1,12.5,14.1v17c0,3.6-2,8.3-6,11.1
			c0.3,1.8,1.8,4.4,5.1,5.9c3.4,1.5,10.7,4.8,15.4,9.1c8.1-7.4,13.2-18,13.2-29.8C181.8,558,163.9,540,141.6,540z"/>
		<path class="st4" d="M149.8,595C149.8,595,149.8,595,149.8,595c0,0-1.3,0-1.3,0c4-2.8,5.5-7.5,5.5-11.1v-17
			c0,0,1.6-14.1-12.5-14.1c-14.1,0-12.5,14.1-12.5,14.1v17c0,3.6,2.8,8.3,6.8,11.1c0,0,0,0,0,0c0,0,0,0,0,0
			c-0.3,1.8-1.3,4.4-4.7,5.9c-3.6,1.6-11.2,5.1-15.9,9.8c7.1,6.2,16.3,9.9,26.4,9.9c10.5,0,20-4,27.2-10.6
			c-4.7-4.3-11.3-7.6-14.7-9.1C150.7,599.4,149.8,596.8,149.8,595z"/>
	</g>
	<g>
		<path class="st17" d="M357.8,258.1c-27.4,0-49.7,22.2-49.7,49.7c0,15,6.6,28.4,17.1,37.5c5.8-5.7,15.1-10.1,19.5-12.1
			c4.1-1.8,5.3-5.1,5.7-7.3c-4.9-3.5-8.5-9.2-8.5-13.7v-20.9c0,0-1.8-17.4,15.7-17.4c17.4,0,15.7,17.4,15.7,17.4v20.9
			c0,4.5-2.5,10.2-7.5,13.7c0.4,2.2,2.1,5.5,6.3,7.3c4.2,1.9,13.2,5.9,19,11.3c9.9-9.1,16.3-22.2,16.3-36.7
			C407.4,280.3,385.2,258.1,357.8,258.1z"/>
		<path class="st4" d="M366.8,325.8C366.8,325.8,366.8,325.8,366.8,325.8c0,0-1,0-1,0c4.9-3.5,7.5-9.2,7.5-13.7v-20.9
			c0,0,1.8-17.4-15.7-17.4c-17.4,0-15.7,17.4-15.7,17.4v20.9c0,4.5,3.6,10.2,8.5,13.7c0,0,0,0,0,0c0,0,0,0,0,0
			c-0.4,2.2-1.6,5.5-5.8,7.3c-4.4,2-13.8,6.3-19.5,12.1c8.7,7.6,20.1,12.2,32.6,12.2c12.9,0,24.7-4.9,33.5-13
			c-5.8-5.3-14.5-9.4-18.7-11.3C368.5,331.3,367.2,328,366.8,325.8z"/>
	</g>
	<g>
		<path class="st10" d="M342.8,63.2c-23,0-41.7,18.7-41.7,41.7c0,12.6,5.6,23.8,14.3,31.4c4.8-4.8,12.7-8.5,16.4-10.1
			c3.5-1.5,4.4-4.3,4.8-6.1c-4.1-2.9-7.2-7.8-7.2-11.5V90.9c0,0-1.1-14.6,13.6-14.6c14.6,0,13.6,14.6,13.6,14.6v17.6
			c0,3.8-2.5,8.6-6.6,11.5c0.3,1.9,1.6,4.6,5.1,6.1c3.5,1.6,10.9,5,15.8,9.5c8.3-7.6,13.6-18.6,13.6-30.8
			C384.5,81.8,365.8,63.2,342.8,63.2z"/>
		<path class="st4" d="M350.4,120C350.4,120,350.4,120,350.4,120c0,0-0.4,0-0.4,0c4.1-2.9,6.6-7.8,6.6-11.5V90.9
			c0,0,1.1-14.6-13.6-14.6c-14.6,0-13.6,14.6-13.6,14.6v17.6c0,3.8,3,8.6,7.2,11.5c0,0,0.1,0,0.1,0c0,0,0,0,0,0
			c-0.3,1.9-1.4,4.6-4.9,6.1c-3.7,1.7-11.6,5.3-16.4,10.1c7.3,6.4,16.9,10.2,27.4,10.2c10.8,0,20.7-4.1,28.1-10.9
			c-4.9-4.5-12.1-7.9-15.7-9.5C351.8,124.6,350.7,121.9,350.4,120z"/>
	</g>
	<g>
		<rect x="74.7" y="104.1" class="st18" width="150.4" height="119"/>
		<rect x="87.2" y="116.6" class="st11" width="123.2" height="91.9"/>
		<polyline class="st4" points="86.6,177.7 137.8,151.1 187.9,180 		"/>
		<polyline class="st4" points="166.4,167.6 185,151.1 210.5,167.6 		"/>
		<circle class="st7" cx="159.8" cy="135" r="11.6"/>
	</g>
	<g>
		<polyline class="st4" points="106,262.8 258.4,262.8 258.4,361 		"/>
		<polygon class="st10" points="245.9,275.4 83,275.4 83,381.9 168.6,381.9 168.6,421.5 208.3,381.9 245.9,381.9 		"/>
		<polygon class="st17" points="62.1,352.6 149.8,352.6 149.8,411.1 106,411.1 106,431.7 82.5,411.1 62.1,411.1 		"/>
		<line class="st4" x1="103.9" y1="321.3" x2="227.1" y2="321.3"/>
		<line class="st4" x1="103.9" y1="298.3" x2="227.1" y2="298.3"/>
		<line class="st4" x1="103.9" y1="342.2" x2="227.1" y2="342.2"/>
		<line class="st4" x1="103.9" y1="369.3" x2="135.2" y2="369.3"/>
		<line class="st4" x1="149.8" y1="363.1" x2="181.2" y2="363.1"/>
		<line class="st4" x1="195.8" y1="363.1" x2="227.1" y2="363.1"/>
		<line class="st4" x1="135.2" y1="390.2" x2="74.7" y2="390.2"/>
	</g>
	<g>
		<polyline class="st4" points="1133.5,208.5 1285.9,208.5 1285.9,306.7 		"/>
		<polygon class="st17" points="1273.4,221.1 1110.5,221.1 1110.5,327.6 1196.1,327.6 1196.1,367.2 1235.8,327.6 1273.4,327.6 		"/>
		<polygon class="st10" points="1089.6,298.3 1177.3,298.3 1177.3,356.8 1133.5,356.8 1133.5,377.4 1109.9,356.8 1089.6,356.8 		"/>
		<line class="st4" x1="1131.4" y1="267" x2="1254.6" y2="267"/>
		<line class="st4" x1="1131.4" y1="244" x2="1254.6" y2="244"/>
		<line class="st4" x1="1131.4" y1="287.9" x2="1254.6" y2="287.9"/>
		<line class="st4" x1="1131.4" y1="315" x2="1162.7" y2="315"/>
		<line class="st4" x1="1177.3" y1="308.8" x2="1208.6" y2="308.8"/>
		<line class="st4" x1="1223.2" y1="308.8" x2="1254.6" y2="308.8"/>
		<line class="st4" x1="1162.7" y1="335.9" x2="1102.1" y2="335.9"/>
	</g>
	<g>
		<g>
			<rect x="966.4" y="41.5" class="st4" width="56.4" height="52.2"/>
			<line class="st4" x1="941.3" y1="83.2" x2="768" y2="83.2"/>
			<line class="st4" x1="941.3" y1="51.9" x2="855.7" y2="51.9"/>
		</g>
		<line class="st4" x1="1022.5" y1="94.1" x2="966" y2="40.4"/>
	</g>
	<g>
		<g>
			<g>
				<rect x="452.7" y="49.8" class="st4" width="56.4" height="52.2"/>
				<line class="st4" x1="534.1" y1="60.3" x2="619.7" y2="60.3"/>
				<line class="st4" x1="534.1" y1="91.6" x2="653.1" y2="91.6"/>
			</g>
			<line class="st4" x1="453" y1="48.8" x2="509.4" y2="102.4"/>
		</g>
		<line class="st4" x1="630.2" y1="60.3" x2="653.1" y2="60.3"/>
	</g>
	<g>
		<g>
			<rect x="12" y="467.5" class="st8" width="45.9" height="41.8"/>
			<line class="st4" x1="76.8" y1="475.8" x2="160.3" y2="475.8"/>
			<line class="st4" x1="76.8" y1="500.9" x2="193.7" y2="500.9"/>
		</g>
		<line class="st4" x1="12.8" y1="468.5" x2="57.9" y2="511.3"/>
	</g>
	<g>
		<line class="st4" x1="704.9" y1="83" x2="727" y2="105.1"/>
		<line class="st4" x1="704.9" y1="105.1" x2="727" y2="83"/>
	</g>
	<g>
		<line class="st4" x1="1.1" y1="296.1" x2="23.2" y2="318.1"/>
		<line class="st4" x1="1.1" y1="318.1" x2="23.2" y2="296.1"/>
	</g>
	<g>
		<line class="st4" x1="245.5" y1="28.8" x2="267.5" y2="50.8"/>
		<line class="st4" x1="245.5" y1="50.8" x2="267.5" y2="28.8"/>
	</g>
	<g>
		<line class="st4" x1="1254.1" y1="55.9" x2="1276.2" y2="78"/>
		<line class="st4" x1="1254.1" y1="78" x2="1276.2" y2="55.9"/>
	</g>
	<g>
		<line class="st4" x1="1369" y1="252.2" x2="1391.1" y2="274.3"/>
		<line class="st4" x1="1369" y1="274.3" x2="1391.1" y2="252.2"/>
	</g>
	<rect x="379.6" y="390.2" class="st3" width="31.3" height="10.4"/>
	<rect x="903.7" y="283.7" class="st3" width="29.2" height="10.4"/>
</g>
</svg>
