<?xml version="1.0" encoding="utf-8"?>
<!-- Generator: Adobe Illustrator 19.2.0, SVG Export Plug-In . SVG Version: 6.00 Build 0)  -->
<svg version="1.1" id="Layer_1" xmlns="http://www.w3.org/2000/svg" xmlns:xlink="http://www.w3.org/1999/xlink" x="0px" y="0px"
	 viewBox="0 0 1344.8 1067.3" style="enable-background:new 0 0 1344.8 1067.3;" xml:space="preserve">
<style type="text/css">
	.st0{fill:#E6E6E6;}
	.st1{fill:#1E2C33;}
	.st2{fill:#F5F5F5;}
	.st3{fill:#FFFFFF;}
	.st4{fill:#CC584C;}
	.st5{fill:#C23527;}
	.st6{fill:#198058;}
	.st7{fill:#E78244;}
	.st8{fill:#FFC066;}
</style>
<g>
	<rect x="501.1" y="864" class="st0" width="344.1" height="140.7"/>
	<path class="st1" d="M0,719.3V21C0,1.4,13.3,0,32,0h1282.3c18.7,0,30.5,1.4,30.5,21v698.3H0z M0,719.3"/>
	<path class="st2" d="M0,719.3v113.4c0,18.7,13.3,43,32,43h1282.3c18.7,0,30.5-24.3,30.5-43V719.3H0z M0,719.3"/>
	<rect x="62.6" y="62.6" class="st3" width="1219.7" height="594.2"/>
	<path class="st2" d="M954.6,1036c0-17.2-14.1-31.3-31.3-31.3H422.9c-17.2,0-31.3,14.1-31.3,31.3c0,17.2,14.1,31.3,31.3,31.3h500.4
		C940.5,1067.3,954.6,1053.2,954.6,1036L954.6,1036z M954.6,1036"/>
	<path class="st1" d="M704.4,785.8c0,17.3-14,31.3-31.3,31.3c-17.3,0-31.3-14-31.3-31.3c0-17.3,14-31.3,31.3-31.3
		C690.4,754.5,704.4,768.5,704.4,785.8L704.4,785.8z M704.4,785.8"/>
	<path class="st1" d="M1064.7,255.3c-56.1,0-101.7,45.6-101.7,101.7c0,56.1,45.6,101.7,101.7,101.7c56.1,0,101.8-45.7,101.8-101.7
		C1166.5,301,1120.8,255.3,1064.7,255.3L1064.7,255.3z M1064.7,407.9c-28.1,0-50.9-22.8-50.9-50.9c0-28.1,22.8-50.9,50.9-50.9
		c28.1,0,50.9,22.8,50.9,50.9C1115.6,385.2,1092.8,407.9,1064.7,407.9L1064.7,407.9z M1064.7,407.9"/>
	<path class="st1" d="M1223,360.8c-1.6-0.4-3.3-0.6-4.9-0.9c0.4-15.1-1.4-29.8-5.2-44c1.6-0.6,3.2-0.7,4.7-1.5
		c18.6-10.3,25.3-33.8,14.9-52.3c-10.3-18.6-33.7-25.2-52.3-14.9c-1.4,0.9-2.4,2.2-3.7,3.2c-10-10.7-21.6-20-34.7-27.6
		c0.6-1.5,1.4-3,1.8-4.6c5.8-20.4-6.1-41.7-26.5-47.5c-20.4-5.8-41.7,6.1-47.5,26.5c-0.4,1.6-0.6,3.3-0.8,4.8
		c-15.1-0.4-29.8,1.4-44,5.2c-0.6-1.6-0.7-3.2-1.5-4.7c-10.3-18.5-33.7-25.2-52.2-14.8c-18.6,10.3-25.3,33.7-14.9,52.2
		c0.9,1.5,2.3,2.4,3.2,3.7c-10.8,10-20,21.7-27.6,34.7c-1.5-0.7-2.9-1.4-4.6-1.9c-20.4-5.8-41.7,6-47.5,26.5
		c-5.8,20.4,6.1,41.7,26.5,47.5c1.6,0.4,3.3,0.6,4.8,0.8c-0.4,15.1,1.4,29.8,5.2,44c-1.6,0.6-3.2,0.7-4.7,1.5
		c-18.6,10.3-25.2,33.8-14.9,52.4c10.3,18.5,33.8,25.1,52.3,14.8c1.5-0.8,2.4-2.3,3.8-3.2c10.1,10.7,21.6,20,34.7,27.6
		c-0.7,1.5-1.4,3.1-1.9,4.6c-5.8,20.4,6,41.7,26.5,47.5c20.4,5.7,41.7-6.1,47.5-26.5c0.5-1.6,0.6-3.3,0.9-4.9
		c15.1,0.4,29.8-1.4,44-5.2c0.6,1.6,0.6,3.2,1.4,4.7c10.3,18.6,33.8,25.2,52.4,14.9c18.5-10.3,25.2-33.8,14.9-52.3
		c-0.8-1.5-2.2-2.4-3.2-3.8c10.7-10,19.9-21.6,27.5-34.7c1.5,0.6,3.1,1.4,4.7,1.8c20.4,5.8,41.6-6.1,47.5-26.5
		C1255.3,387.9,1243.4,366.6,1223,360.8L1223,360.8z M1064.7,475.8c-65.5,0-118.7-53.2-118.7-118.7c0-65.5,53.3-118.7,118.7-118.7
		c65.5,0,118.7,53.2,118.7,118.7C1183.4,422.5,1130.2,475.8,1064.7,475.8L1064.7,475.8z M1064.7,475.8"/>
	<rect x="109.5" y="453.5" class="st4" width="78.2" height="156.4"/>
	<rect x="265.8" y="563" class="st5" width="78.2" height="46.9"/>
	<rect x="735" y="422.2" class="st6" width="78.2" height="187.6"/>
	<rect x="406.6" y="344" class="st7" width="93.8" height="265.8"/>
	<rect x="578.6" y="203.3" class="st8" width="78.2" height="406.6"/>
</g>
</svg>
