<?xml version="1.0" encoding="utf-8"?>
<!-- Generator: Adobe Illustrator 19.2.0, SVG Export Plug-In . SVG Version: 6.00 Build 0)  -->
<svg version="1.1" id="Capa_1" xmlns="http://www.w3.org/2000/svg" xmlns:xlink="http://www.w3.org/1999/xlink" x="0px" y="0px"
	 viewBox="0 0 218.1 218.1" style="enable-background:new 0 0 218.1 218.1;" xml:space="preserve">
<style type="text/css">
	.st0{fill:#323232;}
</style>
<path class="st0" d="M215.9,170.8l-23.5-23.5c0,0,0,0,0-0.1s0,0-0.1,0l-36.6-36.6l60.2-60.2c2.9-2.9,2.9-7.7,0-10.6L178.2,2.2
	c-1.4-1.4-3.3-2.2-5.3-2.2l0,0c-0.2,0-0.5,0-0.7,0c-1.7,0.2-3.3,0.9-4.6,2.2L130,39.8c0,0,0,0,0,0l-22.5,22.5L94.4,49.3c0,0,0,0,0,0
	c0,0,0,0,0,0L70.9,25.8c0,0,0,0-0.1-0.1c0,0,0,0-0.1-0.1L47.2,2.2C45.8,0.8,43.9,0,41.9,0S38,0.8,36.6,2.2L2.2,36.6
	c-2.9,2.9-2.9,7.7,0,10.6l60.2,60.2L2.2,167.6C0.8,169,0,170.9,0,172.9v37.6c0,2,0.8,3.9,2.2,5.3c1.4,1.4,3.3,2.2,5.3,2.2l37.6,0
	c2,0,3.9-0.8,5.3-2.2l60.2-60.2l60.2,60.2c1.5,1.5,3.4,2.2,5.3,2.2c1.9,0,3.8-0.7,5.3-2.2l34.5-34.4c1.4-1.4,2.2-3.3,2.2-5.3
	C218.1,174.1,217.3,172.2,215.9,170.8z M172.9,72.2l-27-27l27-27l27,27L172.9,72.2z M18.1,41.9l23.8-23.8l12.9,12.9L43,43
	c-2.9,2.9-2.9,7.7,0,10.6c1.5,1.5,3.4,2.2,5.3,2.2c1.9,0,3.8-0.7,5.3-2.2l11.9-11.9l12.9,13L62,71.1C59,74,59,78.8,62,81.7
	c1.5,1.5,3.4,2.2,5.3,2.2s3.8-0.7,5.3-2.2L89,65.2l7.8,7.8L73,96.8L18.1,41.9z M42,203.1l-27,0v-27L135.3,55.8l27,27L42,203.1z
	 M176.1,200l-54.9-54.9l23.8-23.8l7.8,7.8l-16.5,16.5c-2.9,2.9-2.9,7.7,0,10.6c1.5,1.5,3.4,2.2,5.3,2.2c1.9,0,3.8-0.7,5.3-2.2
	l16.5-16.5l12.9,12.9l-11.9,11.9c-2.9,2.9-2.9,7.7,0,10.6c1.5,1.5,3.4,2.2,5.3,2.2c1.9,0,3.8-0.7,5.3-2.2l11.9-11.9l12.9,12.9
	L176.1,200z"/>
</svg>
