<?xml version="1.0" encoding="utf-8"?>
<!-- Generator: Adobe Illustrator 19.2.0, SVG Export Plug-In . SVG Version: 6.00 Build 0)  -->
<svg version="1.1" id="Layer_1" xmlns="http://www.w3.org/2000/svg" xmlns:xlink="http://www.w3.org/1999/xlink" x="0px" y="0px"
	 viewBox="0 0 1010 1010" style="enable-background:new 0 0 1010 1010;" xml:space="preserve">
<style type="text/css">
	.st0{fill:#29B2FE;}
	.st1{fill:#FFFFFF;}
	.st2{fill:#323232;}
</style>
<g id="rack-server">
	<path id="label_8_" class="st0" d="M505,0c278.9,0,505,226.1,505,505s-226.1,505-505,505C226.1,1010,0,783.9,0,505S226.1,0,505,0z"
		/>
	<g id="icon_8_">
		<g>
			<path class="st1" d="M707.2,529.9H302.7c-26.8,0-48.6,22.4-48.6,50.1c0,27.5,21.8,50,48.6,50h404.5c26.8,0,48.6-22.4,48.6-50
				C755.8,552.3,734,529.9,707.2,529.9z M574,590.3H312.7c-5.9,0-10.7-4.9-10.7-11c0-6.1,4.8-11,10.7-11H574c5.9,0,10.7,4.9,10.7,11
				C584.7,585.4,579.9,590.3,574,590.3z M638.8,595.7c-9.1,0-16.4-7.3-16.4-16.4c0-9.1,7.3-16.5,16.4-16.5c9.1,0,16.4,7.4,16.4,16.5
				C655.3,588.4,648,595.7,638.8,595.7z M716,593.9h-29.2v-29.2H716V593.9z"/>
			<path class="st1" d="M707.2,407.5H302.7c-26.8,0-48.6,22.4-48.6,50.1c0,27.5,21.8,50,48.6,50h404.5c26.8,0,48.6-22.4,48.6-50
				C755.8,429.9,734,407.5,707.2,407.5z M574,467.9H312.7c-5.9,0-10.7-4.9-10.7-11c0-6.1,4.8-10.9,10.7-10.9H574
				c5.9,0,10.7,4.9,10.7,10.9C584.7,463,579.9,467.9,574,467.9z M638.8,473.3c-9.1,0-16.4-7.3-16.4-16.4c0-9.1,7.3-16.5,16.4-16.5
				c9.1,0,16.4,7.4,16.4,16.5C655.3,466,648,473.3,638.8,473.3z M716,471.5h-29.2v-29.2H716V471.5z"/>
			<path class="st1" d="M707.2,285.1H302.7c-26.8,0-48.6,22.4-48.6,50.1c0,27.5,21.8,50,48.6,50h404.5c26.8,0,48.6-22.4,48.6-50
				C755.8,307.5,734,285.1,707.2,285.1z M574,345.5H312.7c-5.9,0-10.7-5-10.7-11c0-6.1,4.8-11,10.7-11H574c5.9,0,10.7,4.9,10.7,11
				C584.7,340.5,579.9,345.5,574,345.5z M638.8,350.9c-9.1,0-16.4-7.3-16.4-16.4c0-9.1,7.3-16.5,16.4-16.5c9.1,0,16.4,7.3,16.4,16.5
				C655.3,343.6,648,350.9,638.8,350.9z M716,349.1h-29.2v-29.2H716V349.1z"/>
		</g>
		<g>
			<rect x="603.1" y="697.9" class="st1" width="139.9" height="13"/>
			<rect x="267" y="697.9" class="st1" width="139.9" height="13"/>
			<polygon class="st2" points="493.2,644.9 516.8,644.9 516.8,685.5 592.3,685.5 592.3,724.9 417.7,724.9 417.7,685.5 493.2,685.5 
							"/>
		</g>
	</g>
</g>
<g id="Layer_1_1_">
</g>
</svg>
